<svg width="72" height="72" viewBox="0 0 72 72" fill="none" xmlns="http://www.w3.org/2000/svg">
<path d="M0 25.9265C1.97642 25.9265 3.95285 25.9265 6.04553 25.9265C6.51057 25.9265 6.62683 25.694 6.62683 25.3452C7.32439 21.1598 8.95203 17.3232 11.626 13.9517C15.2301 9.30128 19.9967 6.16226 25.8098 4.76714C25.926 4.76714 26.0423 4.76714 26.0423 4.76714H26.1585C26.1585 9.18503 26.1585 13.6029 26.1585 18.1371C32.5528 18.1371 38.9472 18.1371 45.4577 18.1371C45.4577 13.6029 45.4577 9.18501 45.4577 4.53461C47.3179 5.23217 49.1781 5.81349 50.922 6.62731C58.3626 10.3476 63.013 16.2769 64.8732 24.4151C65.222 25.9265 65.222 25.9265 66.8496 25.9265C68.4772 25.9265 69.9886 25.9265 71.6163 25.9265C71.6163 29.6468 71.6163 33.3671 71.6163 37.0875C71.3838 37.0875 71.035 37.0875 70.8024 37.0875C47.4341 37.0875 24.1821 37.0875 0.813821 37.0875C0.581301 37.0875 0.348781 37.0875 0 37.0875C0 33.4834 0 29.6468 0 25.9265Z" fill="#C3C7DC"/>
<path d="M27.4376 71.5005C27.4376 69.7566 27.4376 68.0127 27.4376 66.385C27.4376 65.92 27.3214 65.6875 26.8563 65.5712C25.9262 65.2224 24.9962 64.8736 24.0661 64.4086C23.7173 64.1761 23.4848 64.2923 23.136 64.5249C21.9734 65.8037 20.6945 66.9663 19.5319 68.1289C15.5791 64.1761 11.6262 60.2233 7.55713 56.1541C8.71974 54.9915 9.88234 53.8289 11.1612 52.5501C11.51 52.2013 11.6262 51.9688 11.3937 51.5037C10.9287 50.5737 10.5799 49.6435 10.2311 48.7135C10.1149 48.2484 9.88234 48.1322 9.4173 48.1322C7.67339 48.1322 6.04575 48.1322 4.30185 48.1322C4.30185 45.807 4.30185 43.4818 4.30185 41.1566C10.4636 41.1566 16.6254 41.1566 22.7872 41.1566C23.3685 45.2257 25.3449 48.3647 28.7165 50.6899C30.9254 52.085 33.3669 52.7826 36.0409 52.7826C42.2027 52.7826 48.0157 48.1322 48.9458 41.1566C55.1075 41.1566 61.2693 41.1566 67.4311 41.1566C67.4311 43.4818 67.4311 45.6907 67.4311 48.1322C67.1986 48.1322 66.8498 48.1322 66.6173 48.1322C65.1059 48.1322 63.7108 48.1322 62.1994 48.1322C61.8506 48.1322 61.6181 48.2485 61.5019 48.5972C61.1531 49.5273 60.688 50.5737 60.3392 51.5037C60.1067 51.8525 60.223 52.085 60.5718 52.4338C61.8506 53.5964 63.0132 54.8753 64.1758 56.0379C60.223 59.9907 56.2701 63.9436 52.201 68.0127C51.0384 66.8501 49.8758 65.6875 48.7132 64.4086C48.3645 64.0598 48.1319 64.0598 47.6669 64.1761C46.7368 64.6411 45.8067 64.9899 44.8766 65.3387C44.4116 65.455 44.2953 65.6875 44.2953 66.1525C44.2953 67.8964 44.2953 69.6403 44.2953 71.268C38.5986 71.5005 33.0181 71.5005 27.4376 71.5005Z" fill="#123983"/>
<path d="M30.344 0C33.9481 0 37.5522 0 41.1562 0C41.1562 4.65041 41.1562 9.30082 41.1562 14.0675C37.5522 14.0675 33.9481 14.0675 30.344 14.0675C30.344 9.41708 30.344 4.65041 30.344 0Z" fill="#00BF71"/>
</svg>
