<svg width="68" height="68" viewBox="0 0 68 68" fill="none" xmlns="http://www.w3.org/2000/svg">
<path d="M10 67.1C7.2 67.1 4.3 67.1 1.5 67.1C0.3 67.1 0 66.8 0 65.6C0 63.9 0 62.2 0.5 60.6C2 56.3 6.2 53.5 10.8 53.8C15.3 54.1 19.1 57.4999 19.9 61.9C20.2 63.2999 20.1 64.7 20.1 66.1C20.1 66.8 19.6 67.1999 18.8 67.1999C15.8 67.0999 12.9 67.1 10 67.1Z" fill="#123983"/>
<path d="M33.4 67.1C30.5 67.1 27.7 67.1 24.8 67.1C23.7 67.1 23.4 66.7 23.4 65.7C23.4 63.9 23.4 62.2 24 60.5C25.5 56.2 29.7 53.4 34.2 53.8C38.7 54.1 42.5 57.5 43.3 61.9C43.6 63.3 43.5 64.7 43.5 66.1C43.5 66.8 43 67.2 42.2 67.2C39.2 67.1 36.3 67.1 33.4 67.1Z" fill="#123983"/>
<path d="M56.8 67.1C54 67.1 51.1 67.1 48.3 67.1C47.2 67.1 46.8 66.7 46.8 65.6C46.8 63.9 46.8 62.1 47.4 60.4C48.9 56.1 53.2 53.3 57.7 53.7C62.2 54.1 66 57.5 66.8 61.8C67.1 63.2 67 64.6 67 66C67 66.7 66.5 67.1 65.6 67.1C62.6 67.1 59.7 67.1 56.8 67.1Z" fill="#123983"/>
<path d="M32.3 29.2C33 29.2 33.8 29.2 34.5 29.2C34.5 30.4 34.5 31.7 34.5 32.9C34.5 33.5 34.6 33.7 35.3 33.7C40.9 33.7 46.6 33.7 52.2 33.7C55.5 33.7 57.9 36.1 57.9 39.5C57.9 40.2 57.9 40.9 57.9 41.7C57.1 41.9 56.4 41.9 55.6 41.7C55.5 40.6 55.8 39.4 55.4 38.3C55 37 53.7 36 52.2 36C46.5 36 40.8 36 35.1 36C34.5 36 34.4 36.2 34.4 36.8C34.4 38.4 34.4 40.1 34.4 41.7C33.6 41.9 32.9 41.9 32.1 41.7C32.1 40 32.1 38.3 32.1 36.6C32.1 36.2 32 36 31.5 36C25.7 36 19.9 36 14.1 36C12.5 36 10.9 37.5 10.9 39.2C10.9 40 10.9 40.9 10.9 41.7C10.1 41.9 9.4 41.9 8.6 41.7C8.7 40.6 8.5 39.4 8.7 38.3C9.2 35.7 11.5 33.8 14.1 33.8C19.8 33.8 25.5 33.8 31.2 33.8C31.9 33.8 32.1 33.6 32 32.9C32.3 31.6 32.3 30.4 32.3 29.2Z" fill="#00BF71"/>
<path d="M8.9 41.6C9.7 41.5 10.4 41.5 11.2 41.6C15.5 42.6 17.1 47.6 14.2 50.8C12.6 52.6 10.2 53.1 8 52.3C5.8 51.4 4.4 49.3 4.4 46.9C4.4 44.6 6 42.6 8.2 41.8C8.4 41.7 8.7 41.6 8.9 41.6Z" fill="#123983"/>
<path d="M32.3 41.6C33.1 41.5 33.8 41.5 34.6 41.6C38.8 42.6 40.5 47.6 37.6 50.8C36 52.6 33.6 53.1 31.4 52.3C29.2 51.4 27.8 49.3 27.8 46.9C27.8 44.6 29.4 42.6 31.6 41.8C31.9 41.7 32.1 41.6 32.3 41.6Z" fill="#123983"/>
<path d="M55.7 41.6C56.5 41.5 57.2 41.5 58 41.6C62.2 42.6 63.9 47.6 61 50.8C59.4 52.6 57 53.1 54.8 52.3C52.6 51.4 51.2 49.3 51.2 46.9C51.2 44.6 52.8 42.6 55 41.8C55.3 41.7 55.5 41.6 55.7 41.6Z" fill="#123983"/>
<path d="M55.7 7.89996L54.5 8.29999V16.2H55.7V7.89996Z" fill="#FBB03B"/>
<path d="M33.6 29.4C41.6 29.4 48.1 26.3 48.1 24.8V24.6V12.7L34 17.6C33.9 17.6 33.7 17.7 33.6 17.7C33.5 17.7 33.3 17.7 33.2 17.6L19.1 12.8V24.7V24.9C19 26.2 25.5 29.4 33.6 29.4Z" fill="#C3C7DC"/>
<path d="M56.4 7.69995L33.6 0L10.8 7.69995L19 10.5L33.6 15.4L48.1 10.5L54.5 8.29999L55.7 7.89996L56.4 7.69995Z" fill="#C3C7DC"/>
<path d="M54 17.1C53.7 17.4 53.6 17.7 53.6 18.1V22.9C53.6 23.7 54.3 24.4 55.1 24.4C55.9 24.4 56.6 23.7 56.6 22.9V18.1C56.6 17.7 56.4 17.3 56.2 17.1H54Z" fill="#00BF71"/>
<path d="M56.2 17.1H56.3V16.2H55.7H54.5H53.8V17.1H54H56.2Z" fill="#FBB03B"/>
</svg>
