<svg width="74" height="74" viewBox="0 0 74 74" fill="none" xmlns="http://www.w3.org/2000/svg">
<path d="M60.0033 28.2435C58.1152 28.2435 56.2271 28.2435 54.339 28.2435C53.6726 28.2435 53.2284 28.0214 52.7841 27.5772C50.3407 25.0227 47.7862 22.5792 45.3428 20.1358C45.0096 19.8026 44.6764 19.5805 44.121 19.5805C42.8993 19.5805 41.6776 19.5805 40.4559 19.5805C40.2338 19.8026 39.9006 19.8026 39.5674 19.8026C37.7903 19.8026 35.9022 19.8026 34.1252 19.8026C33.792 19.8026 33.4588 19.8026 33.2367 19.5805C32.015 19.5805 30.7933 19.5805 29.5715 19.5805C29.0162 19.5805 28.683 19.6915 28.3498 20.1358C25.9064 22.5792 23.463 25.0227 20.9085 27.5772C20.4642 28.0214 19.9089 28.2435 19.2425 28.2435C17.3544 28.2435 15.5774 28.2435 13.6893 28.2435C13.5782 28.3546 13.3561 28.3546 13.245 28.2435C13.245 27.9103 13.4671 27.6882 13.6893 27.355C14.911 25.4669 14.911 23.6899 13.6893 21.6907C13.4671 21.4686 13.245 21.2465 13.245 20.8022C14.5778 20.8022 15.9106 20.8022 17.3544 20.8022C17.7987 20.8022 18.1319 20.6911 18.465 20.3579C20.9085 17.9145 23.463 15.36 25.9064 12.9166C26.3507 12.4723 26.906 12.2502 27.5724 12.2502C29.4605 12.2502 31.3486 12.2502 33.2367 12.2502C33.4588 12.0281 33.792 12.0281 34.1252 12.0281C35.9022 12.0281 37.7903 12.0281 39.5674 12.0281C39.9006 12.0281 40.2338 12.0281 40.4559 12.2502C42.344 12.2502 44.2321 12.2502 46.1202 12.2502C46.7866 12.2502 47.3419 12.4723 47.7862 12.9166C50.2296 15.36 52.673 17.8034 55.1165 20.2469C55.4497 20.5801 55.8939 20.8022 56.3382 20.8022C57.671 20.8022 59.0037 20.8022 60.3365 20.8022C60.3365 21.1354 60.1144 21.3575 59.8923 21.5796C58.5595 23.5788 58.5595 25.3559 59.8923 27.355C60.0033 27.5772 60.3365 27.7993 60.3365 28.1325C60.3365 28.3546 60.2255 28.3546 60.0033 28.2435Z" fill="#C3C7DC"/>
<path d="M51.5624 65.0065C54.4501 65.1175 56.4493 67.2278 56.4493 70.1155C56.4493 70.7818 56.4493 71.4482 56.4493 72.2257C56.4493 73.2253 56.005 73.6695 55.0054 73.6695C53.1173 73.6695 51.2292 73.6695 49.4522 73.6695C39.3453 73.6695 29.1273 73.6695 19.0204 73.6695C17.4655 73.6695 17.1323 73.3363 17.2433 71.7814C17.2433 70.5597 17.0212 69.338 17.5765 68.1163C18.4651 66.1171 20.02 65.1175 22.1302 65.0065C22.4634 64.7844 22.7966 64.7844 23.1298 64.7844C32.2371 64.7844 41.4555 64.7844 50.5628 64.7844C50.896 64.7844 51.2292 64.6733 51.5624 65.0065Z" fill="#123983"/>
<path d="M33.1257 19.5807C35.5692 19.5807 38.0126 19.5807 40.456 19.5807C40.456 31.7979 40.456 44.1261 40.456 56.3432C40.2339 56.5654 39.9007 56.5654 39.5675 56.5654C37.6794 56.5654 35.9024 56.5654 34.0143 56.5654C33.6811 56.5654 33.3479 56.5654 33.1257 56.3432C33.1257 44.1261 33.1257 31.9089 33.1257 19.5807Z" fill="#123983"/>
<path d="M33.126 56.4546C35.5694 56.4546 38.0128 56.4546 40.4562 56.4546C42.4554 56.4546 44.3435 56.4546 46.3427 56.4546C49.3414 56.4546 51.4517 58.5648 51.4517 61.5636C51.4517 62.6742 51.4517 63.896 51.4517 65.0066C41.678 65.0066 31.7932 65.0066 22.0195 65.0066C22.0195 63.896 22.0195 62.6742 22.0195 61.5636C21.9084 58.6759 24.2408 56.3435 27.1284 56.4546C29.2387 56.4546 31.1268 56.4546 33.126 56.4546Z" fill="#C3C7DC"/>
<path d="M19.3535 45.6813C19.4646 45.9034 19.5757 46.0145 19.5757 46.2366C19.9089 50.0128 19.4646 53.5669 16.4659 56.2324C13.5782 58.7869 10.2462 59.5644 6.69215 58.3427C3.02701 57.121 0.805709 54.4554 0.139319 50.5681C-0.0828105 49.2354 0.0282546 47.7915 0.0282546 46.4587C0.0282546 46.1255 0.139319 45.9034 0.250384 45.6813C0.472514 45.3481 0.805709 45.1259 1.24997 45.1259C1.80529 45.1259 2.36062 45.1259 2.91594 45.1259C7.4696 45.1259 12.0233 45.1259 16.5769 45.1259C17.1322 45.1259 17.6876 45.1259 18.2429 45.1259C18.7982 45.1259 19.1314 45.237 19.3535 45.6813Z" fill="#123983"/>
<path d="M73.3312 45.6813C73.4423 45.9034 73.5533 46.0145 73.5533 46.2366C73.8865 50.0128 73.4423 53.5669 70.4435 56.2324C67.5558 58.7869 64.2239 59.5644 60.6698 58.3427C57.0047 57.121 54.7834 54.4554 54.117 50.5681C53.8948 49.2354 54.0059 47.7915 54.0059 46.4587C54.0059 46.1255 54.117 45.9034 54.228 45.6813C54.4502 45.3481 54.7834 45.1259 55.2276 45.1259C55.783 45.1259 56.3383 45.1259 56.8936 45.1259C61.4473 45.1259 66.0009 45.1259 70.5546 45.1259C71.1099 45.1259 71.6652 45.1259 72.2206 45.1259C72.7759 45.1259 73.1091 45.237 73.3312 45.6813Z" fill="#123983"/>
<path d="M13.1336 20.8023C15.2438 23.2457 15.2438 25.2449 13.1336 28.1326C12.6893 28.799 11.9119 29.0211 11.1344 29.3543C10.2459 29.5764 9.2463 29.5764 8.35778 29.3543C7.58032 28.91 6.58074 28.6879 6.13648 27.7994C5.47009 26.7998 4.91476 25.8002 4.91476 24.5785C4.91476 22.5793 5.80328 21.0244 7.58032 20.1359C9.35736 19.2474 11.0233 19.3585 12.6893 20.4691C12.8004 20.5802 13.0225 20.6912 13.1336 20.8023Z" fill="#123983"/>
<path d="M33.1256 8.25246C32.015 6.69755 31.4597 5.03159 32.2371 3.14348C33.0146 1.25538 34.4584 0.144726 36.3465 0.0336607C38.3457 -0.188469 39.9006 0.70004 40.9002 2.36601C42.0108 4.14305 41.8998 5.9201 40.7891 7.58608C40.678 7.80821 40.4559 8.03033 40.3448 8.25246C39.4563 9.58524 38.1235 10.0295 36.6797 10.0295C35.3469 9.91844 34.0141 9.58524 33.1256 8.25246Z" fill="#FBB03B"/>
<path d="M60.4474 28.1332C59.6699 27.1336 59.0035 26.134 58.8925 24.9123C58.7814 23.3574 59.3367 22.0246 60.4474 20.8029C61.8912 19.6922 63.5572 19.248 65.3342 19.8033C68.444 20.9139 69.5547 24.468 67.7777 27.1336C67.6666 27.3557 67.5555 27.5778 67.3334 27.8C66.8891 28.6885 65.8895 28.9106 65.1121 29.3549C64.2236 29.577 63.224 29.577 62.3355 29.3549C61.6691 29.0217 60.8916 28.9106 60.4474 28.1332Z" fill="#123983"/>
<path d="M6.13728 27.911C6.80367 28.4663 7.58113 28.7995 8.24752 29.2438C8.46965 29.577 8.24752 29.7991 8.24752 30.1323C6.69261 34.9081 5.02663 39.7949 3.47173 44.5707C3.36066 44.9039 3.2496 45.126 3.02747 45.3482C2.13895 45.4592 1.25043 45.126 0.361908 45.6814C1.25043 42.9047 2.13895 40.1281 3.13853 37.3515C4.13812 34.1306 5.1377 31.0208 6.13728 27.911Z" fill="#00BF71"/>
<path d="M65.334 29.2438C66.0004 28.7995 66.8889 28.4663 67.4443 27.911C69.3324 33.6863 71.3315 39.4617 73.2196 45.2371C73.2196 45.3482 73.3307 45.5703 73.3307 45.6814C72.4422 45.126 71.5537 45.4592 70.6651 45.3482C70.332 45.126 70.3319 44.7928 70.2209 44.4596C68.666 39.6839 67 34.9081 65.4451 30.1323C65.334 29.9101 65.1119 29.577 65.334 29.2438Z" fill="#00BF71"/>
<path d="M11.357 29.2436C12.0234 28.9104 12.5787 28.5772 13.2451 28.133C13.3561 28.133 13.4672 28.133 13.6893 28.133C15.5774 33.6862 17.3545 39.2395 19.2426 44.6816C19.3536 45.0148 19.4647 45.237 19.4647 45.5702C18.5762 45.0148 17.6877 45.348 16.7991 45.237C16.4659 45.0148 16.4659 44.6816 16.3549 44.3484C14.8 39.5727 13.134 34.7969 11.5791 30.0211C11.357 29.91 11.1348 29.5768 11.357 29.2436Z" fill="#00BF71"/>
<path d="M60.4476 28.133C61.114 28.4662 61.6693 28.7994 62.3357 29.2436C62.5578 29.5768 62.3357 29.7989 62.3357 30.1321C60.7808 34.9079 59.1148 39.7948 57.5599 44.5706C57.4488 44.9038 57.3378 45.1259 57.1156 45.348C56.2271 45.4591 55.3386 45.1259 54.4501 45.6812C55.5607 42.3493 56.6714 39.0173 57.782 35.5743C58.5595 33.1309 59.448 30.6875 60.2254 28.133C60.2254 28.244 60.3365 28.133 60.4476 28.133Z" fill="#00BF71"/>
<path d="M33.1257 8.25278C35.5692 10.363 38.0126 10.363 40.456 8.25278C40.456 9.58556 40.456 10.9183 40.456 12.2511C38.0126 12.2511 35.5692 12.2511 33.1257 12.2511C33.1257 10.9183 33.1257 9.58556 33.1257 8.25278Z" fill="#C3C7DC"/>
</svg>
