<svg width="64" height="63" viewBox="0 0 64 63" fill="none" xmlns="http://www.w3.org/2000/svg">
<path d="M45.3953 62.3545C44.9541 62.3545 44.66 62.3545 44.5129 62.3545C31.4243 62.3545 18.4827 62.3545 5.39411 62.3545C2.74697 62.3545 0.83515 60.5897 0.982213 58.0896C0.982213 57.5013 1.27634 56.766 1.57047 56.1777C5.24705 49.7069 8.92363 43.3832 12.6002 37.0595C12.7473 36.7654 13.1885 36.4714 13.6297 36.4714C23.0417 36.4714 32.4537 36.4714 42.0128 36.4714C42.8952 36.4714 43.1894 36.7654 43.1894 37.7948C43.1894 40.2949 43.1894 42.7951 43.1894 45.2952C43.1894 48.6776 43.1894 52.0599 43.1894 55.4424C43.0423 57.9425 43.6305 60.2956 45.3953 62.3545ZM18.0415 44.8539C18.0415 46.7657 19.6592 48.3835 21.5711 48.3835C23.4829 48.3835 25.1006 46.7657 25.1006 44.8539C25.1006 42.9421 23.4829 41.3244 21.5711 41.3244C19.6592 41.3244 18.0415 42.795 18.0415 44.8539ZM33.7773 49.8541C31.8655 49.8541 30.2478 51.4718 30.2478 53.3836C30.2478 55.2955 31.8655 56.913 33.7773 56.913C35.6891 56.913 37.3068 55.2955 37.3068 53.3836C37.4539 51.3248 35.8362 49.707 33.7773 49.8541Z" fill="#123983"/>
<path d="M21.5715 6.17658C20.6891 6.17658 19.9538 6.17658 19.2184 6.17658C17.4537 6.17658 15.9831 4.85305 15.9831 3.08829C15.9831 1.32353 17.3066 0 19.0714 0C24.8068 0 30.3952 0 36.1307 0C37.8955 0 39.3661 1.4706 39.3661 3.08829C39.3661 4.85305 38.0425 6.17658 36.1307 6.17658C35.3954 6.17658 34.6601 6.17658 33.7777 6.17658C33.7777 6.32365 33.7777 6.47078 33.7777 6.61784C33.7777 11.3239 33.7777 16.0299 33.7777 20.7359C33.7777 21.1771 33.9248 21.4713 34.2189 21.9125C36.2778 25.589 38.3367 29.1186 40.5426 32.7952C40.6897 33.0893 40.8367 33.2363 40.9838 33.6775C32.16 33.6775 23.4833 33.6775 14.6595 33.6775C14.8065 33.2363 14.9536 32.9421 15.2477 32.648C17.3066 29.1184 19.3655 25.442 21.4244 21.9125C21.5715 21.6183 21.7185 21.177 21.7185 20.8829C21.7185 16.1769 21.7185 11.4709 21.7185 6.76487C21.7185 6.47075 21.7185 6.47071 21.5715 6.17658Z" fill="#00BF71"/>
<path d="M45.9842 32.7948C49.9549 32.7948 53.9256 32.7948 57.8963 32.7948C57.8963 33.0889 57.8963 33.383 57.8963 33.6771C57.8963 41.1774 57.8963 48.6775 57.8963 56.0307C57.8963 59.2661 56.1316 61.6192 53.1903 62.3545C49.8079 63.0898 46.4254 60.8838 45.9842 57.3543C45.9842 56.9131 45.8372 56.4718 45.8372 56.1777C45.8372 48.6775 45.8372 41.1774 45.8372 33.6771C45.9842 33.383 45.9842 33.0889 45.9842 32.7948ZM50.5432 44.2656C49.6608 44.2656 48.9255 45.0009 48.9255 45.7363C48.9255 46.6186 49.6608 47.2069 50.5432 47.2069C51.4256 47.2069 52.0138 46.6186 52.0138 45.7363C52.1609 45.0009 51.4256 44.2656 50.5432 44.2656ZM53.4844 37.2067C52.6021 37.2067 51.8667 37.7949 51.8667 38.6773C51.8667 39.5597 52.6021 40.148 53.4844 40.148C54.3668 40.148 54.9551 39.5597 55.1021 38.6773C55.1021 37.942 54.3668 37.2067 53.4844 37.2067Z" fill="#C3C7DC"/>
<path d="M58.0423 21.1775C58.0423 24.1188 58.0423 26.913 58.0423 29.8543C54.0716 29.8543 50.1009 29.8543 45.9831 29.8543C45.9831 27.0601 45.9831 24.2658 45.9831 21.1775C45.1007 21.1775 44.3654 21.1775 43.6301 21.1775C41.7183 21.1775 40.2476 19.854 40.2476 18.0892C40.2476 16.3244 41.5712 15.0007 43.6301 15.0007C49.2185 15.0007 54.8069 15.0007 60.2482 15.0007C62.16 15.0007 63.6307 16.3244 63.6307 18.0892C63.6307 19.854 62.16 21.1775 60.2482 21.1775C59.66 21.1775 58.9247 21.1775 58.0423 21.1775Z" fill="#EBB55D"/>
<path d="M50.5422 44.2654C51.4246 44.2654 52.1599 45.0008 52.1599 45.7361C52.1599 46.4714 51.4246 47.2067 50.6893 47.2067C49.8069 47.2067 49.0716 46.6185 49.0716 45.7361C48.9245 45.0008 49.6598 44.2654 50.5422 44.2654Z" fill="#123983"/>
<path d="M53.4845 37.2067C54.3668 37.2067 55.1021 37.795 54.9551 38.6774C54.9551 39.4127 54.2198 40.148 53.3374 40.148C52.455 40.148 51.7197 39.5597 51.7197 38.6774C51.8668 37.795 52.6021 37.2067 53.4845 37.2067Z" fill="#123983"/>
<path d="M21.5712 41.3242C19.6594 41.3242 18.0417 42.9419 18.0417 44.8538C18.0417 46.7656 19.6594 48.3833 21.5712 48.3833C23.483 48.3833 25.1007 46.7656 25.1007 44.8538C25.1007 42.9419 23.483 41.3242 21.5712 41.3242Z" fill="white"/>
<path d="M33.7771 49.8543C31.8653 49.8543 30.2476 51.472 30.2476 53.3838C30.2476 55.2956 31.8653 56.9132 33.7771 56.9132C35.689 56.9132 37.3067 55.2956 37.3067 53.3838C37.4537 51.3249 35.836 49.7072 33.7771 49.8543Z" fill="white"/>
</svg>
