<svg width="70" height="71" viewBox="0 0 70 71" fill="none" xmlns="http://www.w3.org/2000/svg">
<path d="M51.8541 52.9418C51.7431 52.9418 51.6321 52.9418 51.4101 52.9418C49.0793 57.0484 46.0826 60.822 42.42 63.9297C49.5233 62.8198 55.9607 59.3791 60.9552 54.1626C59.2903 52.9417 57.5145 51.9428 55.7387 51.0549C54.7398 52.1648 53.4079 52.9418 51.8541 52.9418Z" fill="#123983"/>
<path d="M56.7369 48.0582C56.7369 48.2802 56.7369 48.6132 56.6259 48.8352C58.6237 49.8341 60.6215 50.944 62.5084 52.2759C66.615 47.1704 69.0567 40.955 69.5007 34.4066H56.7369C56.515 37.8473 55.96 41.1769 55.0721 44.3956C56.071 45.2835 56.7369 46.5044 56.7369 48.0582Z" fill="#123983"/>
<path d="M69.7229 31.9652C69.7229 25.1949 67.6141 18.6466 63.6185 13.2081C60.8437 15.3169 57.847 17.0927 54.7393 18.4246C56.1822 22.7532 56.9591 27.3037 56.9591 31.9652H69.7229Z" fill="#123983"/>
<path d="M21.7758 50.2778C19.112 51.3877 16.6703 52.8306 14.4505 54.4955C19.223 59.379 25.4384 62.5976 32.0977 63.8185C27.6582 60.0449 24.2175 55.4943 21.7758 50.2778Z" fill="#C3C7DC"/>
<path d="M5.9052 38.1803C6.9041 43.5077 9.23487 48.5022 12.7865 52.7198C15.2283 50.833 18.003 49.2791 20.7777 48.0583C19.0019 43.7297 18.003 39.1791 17.781 34.4066H10.2338C9.78981 36.5154 8.01399 38.0693 5.9052 38.1803Z" fill="#C3C7DC"/>
<path d="M36.2045 34.4066H20.2221C20.4441 38.8462 21.443 43.0638 23.1078 47.1704C27.3254 45.6165 31.765 44.7286 36.3155 44.5067V34.4066H36.2045Z" fill="#C3C7DC"/>
<path d="M36.205 64.0405V46.9481C31.9874 47.1701 27.8808 47.947 23.9962 49.3899C26.7709 55.1613 30.9885 60.1558 36.205 64.0405Z" fill="#C3C7DC"/>
<path d="M21.2212 12.3196C21.6652 12.3196 21.9982 12.4306 22.4421 12.5416C24.8839 7.99101 28.1026 3.88441 31.9872 0.332764C24.7729 1.55364 18.1136 5.21627 13.23 10.7657C14.6729 11.8756 16.1158 12.8745 17.6696 13.7624C18.5575 12.8745 19.8894 12.3196 21.2212 12.3196Z" fill="#C3C7DC"/>
<path d="M21.443 22.0868C20.6661 25.3055 20.2221 28.6352 20.2221 32.0759H36.3155V21.8649C32.5419 21.7539 28.8793 21.0879 25.4386 19.978C24.4397 21.1989 22.9969 21.9759 21.443 22.0868Z" fill="#C3C7DC"/>
<path d="M16.3377 17.2033C16.3377 16.7593 16.4487 16.4264 16.5597 15.9824C14.8949 14.9835 13.341 13.8736 11.7872 12.7637C8.23553 17.4253 6.12674 22.8637 5.46081 28.5242C7.68059 28.5242 9.5674 29.9671 10.1223 32.0758H17.6696C17.6696 28.5242 18.1136 24.9726 19.0015 21.5319C17.4476 20.644 16.3377 19.0901 16.3377 17.2033Z" fill="#C3C7DC"/>
<path d="M26.105 17.2033C26.105 17.3143 26.105 17.4253 26.105 17.5363C29.4347 18.5352 32.7643 19.2011 36.205 19.3121V0C31.3215 3.66264 27.3259 8.32419 24.5511 13.5407C25.55 14.5396 26.105 15.7604 26.105 17.2033Z" fill="#C3C7DC"/>
<path d="M38.6459 19.4235C43.0855 19.3125 47.3031 18.5356 51.5207 17.0927C48.8569 10.5444 44.4174 4.77297 38.6459 0.444397V19.4235Z" fill="#123983"/>
<path d="M42.42 0.222168C47.4145 4.55074 51.2991 9.98919 53.7409 16.0936C56.6266 14.8727 59.4013 13.2079 61.9541 11.2101C56.9596 5.32766 50.0782 1.44305 42.42 0.222168Z" fill="#123983"/>
<path d="M38.6459 31.9652H54.4064C54.4064 27.6366 53.7404 23.4191 52.2976 19.3125C47.858 20.8663 43.3075 21.7542 38.6459 21.8652V31.9652Z" fill="#123983"/>
<path d="M46.9701 48.058C46.9701 47.947 46.9701 47.947 46.9701 48.058C44.3064 47.3921 41.5317 47.0591 38.6459 46.9481V63.8185C42.8635 60.5998 46.4152 56.6042 49.0789 52.0537C47.858 51.1657 46.9701 49.7228 46.9701 48.058Z" fill="#123983"/>
<path d="M51.8536 43.1743C52.1866 43.1743 52.5196 43.1743 52.8525 43.2852C53.6295 40.3995 54.1844 37.5139 54.2954 34.5172H38.6459V44.6171C41.6426 44.6171 44.6393 45.0611 47.636 45.727C48.524 44.1732 50.0778 43.1743 51.8536 43.1743Z" fill="#123983"/>
<path d="M16.3376 17.2033C16.3376 19.0901 17.4475 20.755 19.0013 21.5319C19.6672 21.8649 20.4442 22.0869 21.2211 22.0869H21.3321C22.9969 22.0869 24.4398 21.1989 25.2167 19.8671C25.6607 19.2011 25.8826 18.4242 25.9936 17.5363C25.9936 17.4253 25.9936 17.3143 25.9936 17.2033C25.9936 15.7604 25.4387 14.5396 24.4398 13.6517C23.8848 13.0967 23.1079 12.6528 22.331 12.4308C21.887 12.3198 21.5541 12.2088 21.1101 12.2088C19.6672 12.2088 18.4464 12.7638 17.5585 13.7627C17.0035 14.3176 16.5596 15.0945 16.3376 15.8715C16.4486 16.3154 16.3376 16.7594 16.3376 17.2033Z" fill="#00BF71"/>
<path d="M5.46044 28.5244C2.7967 28.5244 0.576923 30.7442 0.576923 33.408C0.576923 36.0717 2.7967 38.2914 5.46044 38.2914C5.57143 38.2914 5.68242 38.2914 5.79341 38.2914C8.01319 38.1804 9.67802 36.6266 10.233 34.5178C10.344 34.1849 10.344 33.8519 10.344 33.408C10.344 32.964 10.233 32.52 10.122 32.0761C9.56703 29.9673 7.68022 28.5244 5.46044 28.5244Z" fill="#00BF71"/>
<path d="M46.9701 48.058C46.9701 49.7229 47.858 51.1658 49.0789 52.0537C49.7448 52.4976 50.5218 52.8306 51.4097 52.8306C51.5207 52.8306 51.6316 52.8306 51.8536 52.8306C53.4075 52.8306 54.7393 52.0537 55.6273 50.9438C56.1822 50.2779 56.5152 49.5009 56.6262 48.724C56.6262 48.502 56.7371 48.1691 56.7371 47.9471C56.7371 46.5042 56.0712 45.1724 55.0723 44.2845C54.4064 43.7295 53.7404 43.2856 52.8525 43.1746C52.5196 43.0636 52.1866 43.0635 51.8536 43.0635C50.0778 43.0635 48.524 44.0625 47.636 45.5053C47.3031 46.2822 46.9701 47.0591 46.9701 48.058C46.9701 47.9471 46.9701 47.9471 46.9701 48.058Z" fill="#00BF71"/>
<path d="M49.4119 70.6998H25.8822C24.8833 70.6998 23.9954 69.8119 23.9954 68.813C23.9954 67.8141 24.8833 66.9261 25.8822 66.9261H49.4119C50.4108 66.9261 51.2987 67.8141 51.2987 68.813C51.2987 69.9229 50.4108 70.6998 49.4119 70.6998Z" fill="#C3C7DC"/>
</svg>
