<svg width="72" height="80" viewBox="0 0 72 80" fill="none" xmlns="http://www.w3.org/2000/svg">
<path d="M61.9903 20.2403C61.6285 20.1197 61.5079 20.4815 61.2667 20.6021C60.6638 21.2051 60.0608 21.808 59.4578 22.411C58.3725 23.4964 57.4077 23.2552 56.8047 21.9286C55.84 19.6373 54.5134 17.5872 52.9457 15.6577C49.0867 11.3163 44.1423 8.78383 38.3538 8.18085C31.1181 7.45729 24.8472 9.74858 19.6616 14.9341C17.7321 16.8637 16.1644 19.2756 15.079 21.808C14.4761 23.2552 13.5113 23.4964 12.3054 22.411C11.7024 21.808 11.0994 21.2051 10.4964 20.6021C10.2552 20.3609 10.1346 20.1197 9.77287 20.2403C9.0493 19.6373 8.44633 18.9138 7.84335 18.1902C8.68752 15.8989 10.0141 13.8488 11.5818 11.9193C16.4056 5.76896 22.7971 1.78934 30.5151 0.462804C39.3185 -0.98433 47.3984 0.945182 54.634 6.49253C58.3725 9.3868 61.3873 13.1252 63.4374 17.346C63.558 17.5872 63.6786 17.949 63.7992 18.1902C63.3168 18.9138 62.7139 19.5167 61.9903 20.2403Z" fill="#00BF71"/>
<path d="M10.7381 40.0181C10.7381 38.6915 10.7381 37.365 10.7381 36.0385C10.7381 33.8678 12.5471 32.0588 14.7178 32.0588C16.7679 32.0588 18.9386 32.0588 20.9887 32.0588C23.6418 32.0588 25.3301 33.7472 25.3301 36.4002C25.3301 44.2389 25.3301 52.0775 25.3301 59.9162C25.3301 62.3281 23.5212 64.0164 21.2299 64.0164C19.1798 64.0164 17.0091 64.0164 14.959 64.0164C12.5471 64.0164 10.7381 62.3281 10.7381 59.7956C10.7381 58.469 10.7381 57.2631 10.7381 55.9366C10.497 55.5748 10.497 55.213 10.497 54.8512C10.497 50.2686 10.497 45.686 10.497 41.1034C10.3764 40.7416 10.3764 40.3799 10.7381 40.0181Z" fill="#C3C7DC"/>
<path d="M61.267 55.9369C61.267 57.2634 61.267 58.59 61.267 59.9165C61.267 62.0872 59.458 63.8961 57.2873 63.8961C55.1166 63.8961 53.0665 63.8961 50.8958 63.8961C48.3633 63.8961 46.675 62.2078 46.675 59.6753C46.675 51.8367 46.675 43.8774 46.675 36.0388C46.675 33.6269 48.4839 31.9386 50.7752 31.9386C52.8253 31.9386 54.8754 32.0592 56.9256 31.9386C59.5786 31.818 61.5081 34.1093 61.267 36.28C61.1464 37.4859 61.267 38.6919 61.267 39.8978C61.5081 40.2596 61.5081 40.6214 61.5081 40.9832C61.5081 45.5658 61.5081 50.1484 61.5081 54.731C61.6287 55.3339 61.6287 55.6957 61.267 55.9369Z" fill="#C3C7DC"/>
<path d="M61.2677 55.9358C61.2677 50.6297 61.2677 45.3235 61.2677 39.8968C62.1118 39.8968 63.0766 39.8968 63.9208 39.8968C64.7649 39.535 65.7297 39.535 66.5738 39.8968C67.418 39.8968 68.2622 39.7762 69.1063 40.138C70.7946 40.7409 71.88 42.1881 71.88 43.997C71.88 47.0118 71.88 50.0267 71.88 53.0416C71.6388 54.1269 70.9152 54.9711 70.0711 55.5741C69.8299 55.6946 69.5887 55.9358 69.2269 55.8152C66.6944 56.177 64.0413 55.9358 61.2677 55.9358Z" fill="#00BF71"/>
<path d="M10.738 40.018C10.738 45.3242 10.738 50.6304 10.738 56.0571C8.56728 56.0571 6.39657 56.0571 4.22587 56.0571C1.81398 56.0571 0.00506423 54.3688 0.00506423 51.8363C0.00506423 49.3038 0.125659 46.8919 0.00506423 44.3594C-0.11553 41.9476 1.93458 39.7769 4.34647 40.018C4.70825 40.018 5.07004 40.018 5.31122 40.018C6.15539 39.6563 7.12014 39.6563 7.9643 40.018C8.92906 40.018 9.77322 40.018 10.738 40.018Z" fill="#00BF71"/>
<path d="M69.3468 55.8152C70.6733 55.2123 71.3969 54.2475 71.9999 53.0416C71.9999 56.0564 71.9999 58.9507 71.9999 61.9656C71.8793 68.96 66.2113 75.1104 59.3374 75.8339C58.4933 75.9545 57.5285 75.9545 56.6844 75.9545C51.4988 75.9545 46.3132 75.9545 41.1277 75.9545C40.8865 75.1104 40.8865 74.1456 41.1277 73.3014C46.4338 73.3014 51.8606 73.3014 57.1667 73.3014C63.92 73.3014 69.2262 67.9953 69.2262 61.242C69.3468 59.4331 69.3468 57.6242 69.3468 55.8152Z" fill="#123983"/>
<path d="M41.1273 73.3018C41.3685 74.1459 41.3685 75.1107 41.1273 75.9548C40.1626 79.5727 36.0624 81.0198 33.0475 79.0903C31.2386 77.8843 30.2738 75.7137 30.7562 73.5429C31.2386 71.2517 33.0475 69.6839 35.3388 69.3221C37.3889 69.081 39.5596 70.1663 40.645 72.0958C40.8861 72.4576 41.0067 72.94 41.1273 73.3018Z" fill="#00BF71"/>
<path d="M66.694 40.018C65.8498 40.018 64.8851 40.018 64.0409 40.018C64.0409 37.7267 63.9203 35.3149 64.0409 33.0236C64.1615 28.6822 63.6791 24.3407 61.9908 20.2405C62.4732 19.3964 63.0761 18.6728 63.9203 18.1904C65.3674 21.2053 66.2116 24.3408 66.4528 27.7174C66.8146 31.8176 66.5734 35.9178 66.694 40.018Z" fill="#123983"/>
<path d="M7.96385 40.018C7.11969 40.018 6.15493 40.018 5.31077 40.018C5.31077 36.5208 5.19017 32.903 5.31077 29.4057C5.43136 25.5467 6.27553 21.8083 7.96385 18.1904C8.80801 18.6728 9.53158 19.2758 9.89336 20.2405C8.32563 24.3407 7.72266 28.5616 7.84325 32.903C8.08444 35.1943 8.08444 37.6061 7.96385 40.018Z" fill="#123983"/>
</svg>
