<svg width="78" height="62" viewBox="0 0 78 62" fill="none" xmlns="http://www.w3.org/2000/svg">
<path d="M25.6689 12.9096C25.8139 5.65854 31.7598 -0.14236 38.8659 0.00266103C46.1169 0.147683 51.9178 6.09371 51.7728 13.1998C51.6277 20.5959 45.6819 26.2516 38.5758 26.1065C31.1797 25.8165 25.5239 19.8706 25.6689 12.9096Z" fill="#C3C7DC"/>
<path d="M36.9814 34.9532C36.6914 33.648 37.5615 32.1977 36.1113 31.4726C37.1264 30.4575 37.9965 29.5873 38.8667 28.7172C39.7368 29.5873 40.752 30.6025 41.6221 31.4726C40.3169 32.1977 41.042 33.648 40.752 34.9532C39.5918 34.9532 38.2866 34.9532 36.9814 34.9532Z" fill="#EBB55D"/>
<path d="M72.0768 49.1647C66.5659 42.6387 60.9101 36.1127 55.3993 29.5868C54.3841 28.4266 53.0789 27.7016 51.3387 27.7016C51.3387 30.167 51.3387 32.4873 51.3387 34.9527C51.9188 34.9527 52.4989 34.9527 53.224 34.9527C53.659 34.9527 54.0941 34.9526 54.5292 35.0977C55.8343 35.5327 56.4144 36.4029 56.4144 37.9981C56.4144 41.4786 56.4144 44.8141 56.4144 48.2946C56.4144 48.7297 56.5595 49.1648 56.8495 49.4548C58.4447 50.76 59.0248 52.5003 58.5898 54.5306C58.2997 55.8358 57.7196 56.7058 56.8495 57.2859H70.6265C73.527 55.5456 74.2521 51.7751 72.0768 49.1647Z" fill="#123983"/>
<path d="M20.448 50.0353C21.4631 49.1652 21.6081 48.15 21.4631 46.9899C21.4631 46.1197 21.4631 45.2496 21.4631 44.2344C21.4631 42.0591 21.4631 40.0289 21.4631 37.8536C21.4631 35.8233 22.4783 34.808 24.5086 34.808C25.0886 34.808 25.6687 34.808 26.3938 34.808C26.3938 32.3427 26.3938 29.8773 26.3938 27.5569C24.6536 27.5569 23.3484 28.4271 22.1882 29.5873C20.3029 31.7626 18.5627 33.9379 16.6774 36.1133C13.0519 40.3189 9.42632 44.6696 5.80078 48.8752C3.48044 51.6306 4.20555 55.4011 7.39602 57.1414H21.028C18.8527 55.4011 18.4177 52.0656 20.448 50.0353Z" fill="#123983"/>
<path d="M54.9631 55.1112C54.9631 49.6004 54.9631 43.9445 54.9631 38.4337C54.9631 36.6935 54.238 36.1134 52.4977 36.1134C43.3613 36.1134 34.225 36.1134 25.2336 36.1134C23.3484 36.1134 22.7683 36.8386 22.7683 38.5789C22.7683 44.0897 22.7683 49.4554 22.7683 54.9662C22.7683 55.8363 22.9133 56.5614 23.4934 57.2865H54.238C54.818 56.7064 54.9631 55.9813 54.9631 55.1112Z" fill="#00BF71"/>
<path d="M70.3354 57.1419H56.7034H54.2381H23.4935H20.8831H7.3961H0V61.2026H77.4415V57.1419H70.3354Z" fill="#EBB55D"/>
</svg>
