<svg width="75" height="59" viewBox="0 0 75 59" fill="none" xmlns="http://www.w3.org/2000/svg">
<path d="M74.0265 49.0162C73.5567 50.2689 72.6171 50.7388 71.2077 50.7388C69.9549 50.7388 68.8587 50.7388 67.6059 50.7388C67.4493 44.1616 62.125 39.9334 56.644 39.9334C51.1631 39.9334 46.1519 44.1616 45.8387 50.7388C39.4182 50.7388 32.9976 50.7388 26.5771 50.7388C26.4205 47.137 25.0111 44.005 21.8791 41.9692C19.8433 40.5598 17.6509 39.9334 15.1454 40.09C10.2908 40.4032 5.27964 44.1616 4.96645 50.8954C4.02685 50.8954 3.08726 50.8954 2.14767 50.7388C1.20808 50.5822 0.738281 49.6426 0.738281 48.5464C0.738281 45.7276 0.738281 43.0654 0.738281 40.2467C0.738281 36.6449 0.738281 33.1997 0.738281 29.598C0.738281 28.9716 0.894879 28.3451 1.20808 27.8753C3.24386 24.1169 5.27964 20.3586 7.31543 16.6002C7.78522 15.6606 8.56822 15.1909 9.66441 15.1909C14.519 15.1909 19.2169 15.1909 24.0715 15.1909C25.6375 15.1909 26.5771 16.1304 26.5771 17.6964C26.5771 23.0208 26.5771 28.3451 26.5771 33.6695C26.5771 33.9827 26.5771 34.2958 26.5771 34.609C26.8903 34.609 27.2035 34.609 27.5167 34.609C42.0804 34.609 56.644 34.609 71.0511 34.609C72.3039 34.609 73.2435 35.0788 73.8699 36.175C74.0265 40.4032 74.0265 44.6314 74.0265 49.0162ZM22.3489 19.419C18.5905 19.419 14.8322 19.419 11.0738 19.419C10.9172 19.419 10.604 19.7322 10.4474 19.8888C8.72482 23.0208 7.00223 26.1527 5.43624 29.1281C5.27965 29.2847 5.12305 29.4413 5.12305 29.7545C5.12305 31.3205 5.12305 32.8865 5.12305 34.4525C10.9172 34.4525 16.5548 34.4525 22.3489 34.4525C22.3489 29.4413 22.3489 24.4302 22.3489 19.419Z" fill="#123983"/>
<path d="M41.7678 0C41.7678 0.469796 41.7678 0.939573 41.7678 1.25277C41.7678 3.60175 41.7678 5.95079 41.7678 8.45637C41.7678 9.86576 42.7074 10.8054 44.1168 10.8054C47.562 10.8054 51.0071 10.8054 54.4523 10.8054C56.0183 10.8054 56.8013 9.86576 56.8013 8.45637C56.8013 5.95079 56.8013 3.44513 56.8013 0.939554C56.8013 0.626357 56.8013 0.313198 56.8013 0C56.9579 0 57.1145 0 57.2711 0C59.3069 0 61.1861 0 63.2218 0C64.4746 0 65.2576 0.782975 65.4142 2.03576C65.4142 2.19236 65.4142 2.349 65.4142 2.6622C65.4142 10.9619 65.4142 19.2616 65.4142 27.5613C65.4142 29.4405 64.6312 30.2235 62.7521 30.2235C53.8259 30.2235 44.7432 30.2235 35.8171 30.2235C33.9379 30.2235 33.1549 29.4405 33.1549 27.5613C33.1549 19.2616 33.1549 10.9619 33.1549 2.50554C33.1549 0.782956 33.9379 0 35.6605 0C37.6962 0 39.732 0 41.7678 0ZM55.7051 25.8388C56.4881 25.8388 57.1145 25.8388 57.8975 25.8388C58.9937 25.8388 59.9333 24.8992 59.9333 23.803C59.9333 22.7068 59.1503 21.6106 58.0541 21.6106C56.4881 21.454 54.7655 21.454 53.1995 21.6106C52.1033 21.6106 51.3203 22.7068 51.3203 23.803C51.3203 24.8992 52.2599 25.8388 53.3561 25.8388C54.2957 25.8388 55.0787 25.8388 55.7051 25.8388Z" fill="#00BF71"/>
<path d="M15.9293 58.0988C11.7012 58.0988 8.4126 54.6537 8.4126 50.5821C8.4126 46.3539 11.8578 43.0654 15.9293 43.0654C20.0009 43.0654 23.4461 46.5105 23.4461 50.5821C23.4461 54.8103 20.1575 58.2554 15.9293 58.0988ZM15.9293 47.4501C14.2068 47.4501 12.6408 48.8596 12.6408 50.7387C12.6408 52.4613 14.0502 54.0273 15.9293 54.0273C17.6519 54.0273 19.2179 52.6179 19.2179 50.7387C19.2179 48.8596 17.6519 47.4501 15.9293 47.4501Z" fill="#C3C7DC"/>
<path d="M64.3178 50.5829C64.3178 54.8111 61.0292 58.0996 56.801 58.0996C52.5729 58.0996 49.2843 54.8111 49.2843 50.5829C49.2843 46.3547 52.5729 43.0662 56.801 42.9096C61.0292 43.0662 64.3178 46.3547 64.3178 50.5829ZM56.801 53.8715C58.5236 53.8715 60.0896 52.4621 60.0896 50.7396C60.0896 49.017 58.6802 47.4509 56.9576 47.4509C55.235 47.4509 53.6691 48.8603 53.6691 50.5829C53.6691 52.4621 55.0784 53.8715 56.801 53.8715Z" fill="#C3C7DC"/>
<path d="M46.1511 6.42051C46.1511 4.22813 46.1511 2.19238 46.1511 0C48.3434 0 50.3792 0 52.5716 0C52.5716 2.19238 52.5716 4.22813 52.5716 6.42051C50.3792 6.42051 48.3434 6.42051 46.1511 6.42051Z" fill="#EBB55D"/>
<path d="M55.7041 25.8374C54.9211 25.8374 54.2947 25.8374 53.5117 25.8374C52.4155 25.8374 51.4759 24.8978 51.4759 23.8016C51.4759 22.7054 52.2589 21.6092 53.3551 21.6092C54.9211 21.4526 56.6437 21.4526 58.2097 21.6092C59.3059 21.6092 60.0889 22.7054 60.0889 23.8016C60.0889 24.8978 59.1493 25.8374 58.0531 25.8374C57.2701 25.8374 56.4871 25.8374 55.7041 25.8374Z" fill="white"/>
<path d="M15.9277 47.4497C17.6503 47.4497 19.2163 48.8591 19.2163 50.7383C19.2163 52.4609 17.8069 54.0268 15.9277 54.0268C14.2051 54.0268 12.6391 52.6175 12.6391 50.7383C12.6391 48.8591 14.2051 47.4497 15.9277 47.4497Z" fill="#00BF71"/>
<path d="M56.8006 53.87C55.078 53.87 53.6686 52.4605 53.6686 50.5814C53.6686 48.8588 55.078 47.2928 56.9572 47.4494C58.6798 47.4494 60.0891 48.8588 60.0891 50.738C60.0891 52.4606 58.6798 53.87 56.8006 53.87Z" fill="#00BF71"/>
</svg>
