<svg width="78" height="62" viewBox="0 0 78 62" fill="none" xmlns="http://www.w3.org/2000/svg">
<path d="M55.3626 27.3688C55.0626 27.6688 55.0626 27.8687 55.2626 28.2687C56.1626 30.3687 56.9626 32.5687 57.8626 34.6687C57.6626 34.9687 57.3626 34.9688 57.0626 34.9688C53.0626 35.3688 49.1626 35.4687 45.1626 35.1687C39.4626 34.8687 33.8626 33.8688 28.2626 32.3688C26.9626 32.0688 25.7626 31.6687 24.5626 31.2687C24.2626 31.1687 23.9626 31.0688 23.7626 30.8688C23.6626 30.7688 23.6626 30.7687 23.6626 30.6687C22.4626 27.7687 21.2626 24.7688 20.0626 21.8688C19.5626 20.6688 19.0626 19.3687 18.5626 18.1687C18.4626 17.8687 18.2626 17.5687 18.3626 17.1687C20.5626 16.2687 22.7626 15.4688 24.9626 14.4688C30.4626 12.1688 35.3626 8.96875 39.5626 4.86875C40.5626 3.86875 41.5626 2.76874 42.5626 1.66874C43.3626 0.668741 44.2626 0.868766 44.7626 2.06877C45.8626 4.86877 47.0626 7.66876 48.1626 10.4688C48.2626 10.7688 48.4626 11.0688 48.8626 11.0688C48.8626 11.4688 48.9626 11.9688 49.1626 12.3688C51.0626 16.9688 52.8626 21.6687 54.7626 26.2687C54.8626 26.6687 55.0626 27.0688 55.3626 27.3688Z" fill="#E6EAFD"/>
<path d="M23.8627 30.8687C23.8627 30.8687 23.8627 30.9687 23.9627 30.9687C24.2627 31.1687 24.4627 31.4687 24.5627 31.7687C25.9627 35.1687 27.2627 38.6688 28.6627 42.0688C28.7627 42.3688 28.8627 42.6687 28.8627 42.9687C28.7627 43.1687 28.5627 43.3687 28.3627 43.3687C26.8627 43.9687 25.3627 44.6687 23.7627 45.1687C23.3627 45.1687 22.9627 45.2687 22.6627 45.4687C21.0627 45.9687 19.3627 46.1687 17.6627 45.8687C16.8627 45.5687 16.0627 45.5687 15.2627 45.3687C13.1627 44.7687 11.1627 43.7687 9.56268 42.2687C9.16268 42.2687 8.96268 41.9687 8.66268 41.7687C7.76268 40.8687 7.06268 39.8687 6.46268 38.7687C6.36268 38.4687 6.26268 38.1687 6.06268 37.8687C5.86268 37.4687 5.66268 36.9687 5.46268 36.4687C5.46268 36.1687 5.36268 35.8688 5.16268 35.5688C4.56268 33.8688 4.56268 32.0687 4.76268 30.2687C4.76268 30.0687 4.86268 29.8687 4.96268 29.6687C5.36268 27.6687 6.06268 25.7688 7.26268 24.0688C7.46268 23.7688 7.66268 23.9688 7.86268 24.0688C10.0627 25.2688 12.3627 26.3687 14.6627 27.2687C16.7627 28.1687 18.8627 29.0687 21.0627 29.7687C22.0627 30.1687 22.9627 30.3687 23.8627 30.8687Z" fill="#A4B3DD"/>
<path d="M17.5627 45.9688C18.0627 45.7687 18.6627 45.9688 19.1627 45.9688C20.2627 45.9688 21.3627 45.6688 22.4627 45.4688C22.7627 45.2687 23.0627 45.1688 23.3627 45.0688C25.1627 44.3688 26.8627 43.6688 28.6627 42.9688C28.7627 42.6687 29.0627 42.6688 29.3627 42.5688C29.5627 42.5688 29.7627 42.6687 29.9627 42.8687C30.8627 43.5687 31.6627 44.2687 32.5627 44.9688C33.1627 45.5687 33.8627 45.9688 34.4627 46.5688C35.3627 47.5688 36.4627 48.3687 37.5627 49.1687C40.2627 51.3687 42.9627 53.5687 45.6627 55.7687C46.6627 56.5687 46.5627 57.4688 45.3627 57.9688C42.7627 58.9688 40.2627 59.9688 37.6627 61.0688C37.0627 61.3688 36.5627 61.2687 35.9627 60.8687C30.0627 56.0687 24.2627 51.2688 18.3627 46.5688C18.0627 46.3688 17.7627 46.2687 17.5627 45.9688Z" fill="#123983"/>
<path d="M29.4627 42.6687C29.1627 42.7687 28.9627 42.8687 28.6627 42.9688C27.0627 38.9688 25.4627 34.9688 23.8627 30.9688C28.4627 32.4688 33.0627 33.5687 37.7627 34.2687C42.0627 34.9687 46.4627 35.2687 50.8627 35.1687C52.9627 35.0687 55.0627 34.9687 57.0627 34.7687C57.2627 34.7687 57.5627 34.6687 57.7627 34.6687C58.0627 35.3687 58.3627 36.0687 58.6627 36.7687C59.0627 37.8687 58.4627 38.6687 57.3627 38.4688C55.4627 38.1687 53.5627 37.9688 51.6627 37.9688C47.9627 37.8688 44.2627 38.1687 40.6627 38.9688C38.9627 39.3687 37.2627 39.7687 35.5627 40.3687C35.4627 40.5687 35.2627 40.6687 35.0627 40.7687C34.4627 40.8687 33.9627 41.1687 33.3627 41.3687C32.3627 41.6687 31.4627 42.0688 30.4627 42.4688C30.1627 42.6687 29.8627 42.7687 29.4627 42.6687Z" fill="#C6CFEA"/>
<path d="M23.8627 30.8687C22.7627 30.6687 21.7627 30.2687 20.7627 29.8687C18.8627 29.1687 16.9627 28.4687 15.0627 27.6687C12.6627 26.5687 10.1627 25.4687 7.7627 24.1687C7.5627 24.0687 7.4627 24.0688 7.2627 24.0688C8.7627 21.8688 10.7627 20.1688 13.2627 19.0688C14.9627 18.3688 16.6627 17.7688 18.2627 17.0688C20.1627 21.6688 21.9627 26.2687 23.8627 30.8687Z" fill="#D1D9F5"/>
<path d="M55.3627 27.3687C54.8627 27.5687 54.8627 27.1687 54.7627 26.8687C53.3627 23.4687 52.0627 20.0687 50.6627 16.6687C49.9627 14.9687 49.3627 13.3687 48.6627 11.6687C48.5627 11.3687 48.3627 11.0687 48.8627 10.9687C53.4627 10.2687 57.4627 12.4687 59.0627 16.6687C60.4627 20.3687 59.1627 24.9687 55.3627 27.3687Z" fill="#123983"/>
<path d="M5.66267 36.2687C5.86267 36.7687 6.06267 37.2687 6.26267 37.8687C6.46267 38.0687 6.56267 38.3687 6.56267 38.6687C7.36267 39.9687 8.26267 41.2687 9.46267 42.2687C6.06267 43.7687 1.96267 42.2687 0.562668 38.8687C-0.937332 35.3687 0.662667 31.4688 4.16267 29.9688C4.46267 29.8688 4.66267 29.7687 4.96267 29.6687C4.66267 31.6687 4.76267 33.5688 5.26267 35.5688C5.46267 35.7688 5.56267 35.9687 5.66267 36.2687Z" fill="#00BF71"/>
<path d="M33.3627 41.2687C33.9627 40.6687 34.8627 40.6687 35.5627 40.3687C36.8627 42.7687 36.4627 45.1688 34.3627 46.5688C33.5627 46.1688 33.0627 45.5688 32.3627 45.0688C32.4627 44.8688 32.6627 44.7687 32.8627 44.6687C33.9627 43.9687 34.1627 43.0687 33.6627 41.8687C33.5627 41.6687 33.3627 41.5687 33.3627 41.2687Z" fill="#00BF71"/>
<path d="M23.3626 45.0688C23.0626 45.1688 22.7626 45.2687 22.4626 45.4688C22.7626 45.1687 23.0626 45.0688 23.3626 45.0688Z" fill="#AFBEE6"/>
<path d="M5.66267 36.2687C5.56267 35.9687 5.46267 35.7688 5.36267 35.4688C5.56267 35.7688 5.66267 35.9687 5.66267 36.2687Z" fill="#B1C0E8"/>
<path d="M6.5627 38.6687C6.4627 38.3687 6.3627 38.1687 6.2627 37.8687C6.5627 38.0687 6.6627 38.2687 6.5627 38.6687Z" fill="#B0BFE7"/>
<path d="M68.9627 1.76875L62.1627 11.3688C61.7627 11.8688 61.0627 11.9687 60.5627 11.6687C60.0627 11.2687 59.9627 10.5688 60.2627 10.0688L67.0627 0.468763C67.4627 -0.0312375 68.1627 -0.131256 68.6627 0.168744C69.2627 0.468744 69.3627 1.16875 68.9627 1.76875Z" fill="#00BF71"/>
<path d="M76.1627 19.7687L64.6627 17.5688C64.0627 17.4688 63.3627 17.8687 63.2627 18.4687C63.1627 19.0687 63.5627 19.7687 64.1627 19.8687L75.6627 22.0688C76.2627 22.1688 76.9627 21.7687 77.0627 21.1687C77.2627 20.4687 76.8627 19.8687 76.1627 19.7687Z" fill="#00BF71"/>
<path d="M73.9627 11.3687L63.0627 15.7687C62.4627 15.9687 61.7627 15.6688 61.5627 15.0688C61.3627 14.4688 61.6627 13.7688 62.2627 13.5688L73.1627 9.16873C73.7627 8.96873 74.4627 9.26874 74.6627 9.86874C74.8627 10.4687 74.5627 11.1687 73.9627 11.3687Z" fill="#00BF71"/>
</svg>
