<svg width="67" height="67" viewBox="0 0 67 67" fill="none" xmlns="http://www.w3.org/2000/svg">
<path d="M0.989258 59.2407C1.12923 58.9607 1.12923 58.5408 1.2692 58.2609C2.10902 55.8814 4.34854 54.2017 6.86799 54.0618C7.00796 54.0618 7.14793 54.0618 7.42787 54.0618C25.204 54.0618 42.8402 54.0618 60.6164 54.0618C63.5558 54.0618 65.7953 55.6015 66.6351 58.1209C68.0348 61.9001 65.2354 66.0992 61.1763 66.0992C60.8963 66.0992 60.6164 66.0992 60.3365 66.0992C42.8402 66.0992 25.344 66.0992 7.70781 66.0992C4.06859 66.0992 1.96905 64.5595 1.12923 60.9203C1.12923 60.9203 1.12923 60.7803 0.989258 60.7803C0.989258 60.3604 0.989258 59.8005 0.989258 59.2407ZM36.1217 60.2205C36.1217 58.9607 35.1419 57.9809 33.8822 57.9809C32.6224 57.9809 31.6427 58.9607 31.6427 60.2205C31.6427 61.4802 32.6224 62.46 33.8822 62.46C35.1419 62.32 36.1217 61.3402 36.1217 60.2205ZM9.24748 60.2205C9.24748 58.9607 8.26769 57.981 7.00796 58.1209C5.74823 58.1209 4.76844 59.1007 4.76844 60.3604C4.76844 61.6201 5.74823 62.6 7.00796 62.6C8.26769 62.32 9.24748 61.3402 9.24748 60.2205ZM58.6568 60.2205C58.6568 61.4802 59.6366 62.46 60.8963 62.46C62.1561 62.46 63.1359 61.4802 63.1359 60.2205C63.1359 58.9607 62.1561 57.9809 60.8963 57.9809C59.6366 57.9809 58.6568 58.9607 58.6568 60.2205Z" fill="#123983"/>
<path d="M36.8216 0.313849C36.9616 0.313849 37.1015 0.453785 37.3815 0.453785C39.481 1.15363 40.6008 3.11325 40.3208 5.21279C40.0409 7.31234 38.2213 8.85201 36.1217 8.71204C34.0222 8.71204 32.2026 7.17232 31.9226 5.07277C31.6427 2.97323 32.9024 1.0137 34.862 0.313849C35.002 0.313849 35.142 0.173828 35.4219 0.173828C35.7018 0.313798 36.2617 0.313849 36.8216 0.313849Z" fill="#EBB55D"/>
<path d="M35.9815 13.4701C31.7824 17.6692 27.7232 21.7283 23.5241 26.0674C23.3842 23.4079 22.4044 21.3084 20.4448 19.7687C18.4852 18.229 16.2457 17.6691 14.0062 18.0891C18.6252 13.47 23.3842 8.71107 28.0032 4.09207C27.8632 6.75149 28.843 8.99108 30.9425 10.8107C32.4822 12.0704 34.3018 12.7702 36.2614 12.6303C38.6409 12.6303 40.6005 11.6505 42.1401 9.97082C43.6798 8.29118 44.3797 6.19168 44.2397 3.81219C44.3797 3.95216 44.5196 4.09212 44.6596 4.23209C47.459 7.03148 50.1184 9.69086 52.9178 12.4903C55.8572 15.4296 55.4373 19.9087 52.218 22.2881C51.938 22.5681 51.5181 22.7081 51.2382 22.8481C50.6783 22.988 50.3984 23.4079 50.5383 23.9678C50.5383 25.0876 50.5383 26.2073 50.5383 27.1871C50.5383 28.4468 49.6985 29.2866 48.5787 29.2866C47.459 29.2866 46.6192 28.4468 46.6192 27.1871C46.6192 25.9274 46.6192 24.8076 46.6192 23.5479C46.6192 23.128 46.4792 22.988 46.1993 22.8481C45.3594 22.4282 44.6596 22.0083 43.9597 21.3084C41.1603 18.789 38.6409 16.1295 35.9815 13.4701Z" fill="#C3C7DC"/>
<path d="M58.6565 50.1437C51.798 50.1437 45.0794 50.1437 38.2209 50.1437C38.2209 49.8638 38.2209 49.7238 38.2209 49.4439C38.2209 44.9648 38.2209 40.3458 38.2209 35.8668C38.2209 34.3271 38.9207 33.6273 40.4604 33.6273C45.7792 33.6273 51.0981 33.6273 56.417 33.6273C57.8167 33.6273 58.6565 34.4671 58.6565 35.7268C58.6565 40.4858 58.6565 45.1048 58.6565 49.8638C58.6565 50.0037 58.6565 50.0037 58.6565 50.1437Z" fill="#00BF71"/>
<path d="M7.14878 27.1882C8.12857 31.9472 11.7678 33.9068 14.4272 34.1867C16.5268 34.3267 18.4863 33.9068 20.166 32.5071C21.8456 31.2474 22.8254 29.4278 23.3853 27.3282C23.3853 34.8866 23.3853 42.4449 23.3853 50.1433C17.9265 50.1433 12.6076 50.1433 7.14878 50.1433C7.14878 42.5849 7.14878 34.8865 7.14878 27.1882Z" fill="#C3C7DC"/>
<path d="M15.266 30.2677C12.8865 30.2677 10.9269 28.3082 10.9269 25.9287C10.9269 23.5492 12.8865 21.7296 15.266 21.7296C17.6455 21.7296 19.6051 23.6892 19.6051 26.0686C19.6051 28.4481 17.6455 30.2677 15.266 30.2677Z" fill="#EBB55D"/>
<path d="M36.1221 60.2203C36.1221 61.48 35.1423 62.4598 33.8825 62.4598C32.6228 62.4598 31.643 61.48 31.643 60.2203C31.643 58.9606 32.6228 57.9807 33.8825 57.9807C35.1423 57.9807 36.1221 58.9606 36.1221 60.2203Z" fill="white"/>
<path d="M9.24728 60.2203C9.24728 61.48 8.26749 62.4598 7.14773 62.4598C5.888 62.4598 4.90821 61.48 4.90821 60.2203C4.90821 58.9606 5.888 57.9807 7.14773 57.9807C8.26749 57.9807 9.24728 58.9606 9.24728 60.2203Z" fill="white"/>
<path d="M58.6574 60.2203C58.6574 58.9606 59.6372 57.9807 60.8969 57.9807C62.1566 57.9807 63.1364 58.9606 63.1364 60.2203C63.1364 61.48 62.1566 62.4598 60.8969 62.4598C59.6372 62.3198 58.6574 61.3401 58.6574 60.2203Z" fill="white"/>
</svg>
