<?xml version="1.0" encoding="UTF-8"?>
<svg enable-background="new 0 0 64 66" version="1.1" viewBox="0 0 64 66" xml:space="preserve" xmlns="http://www.w3.org/2000/svg">
<style type="text/css">
	.st0{fill:#E6EAFD;}
	.st1{fill:#00BF71;}
	.st2{fill:#C3C7DC;}
	.st3{fill:#123983;}
	.st4{fill:#FFFFFF;}
	.st5{fill:#FBB03B;}
</style>
<path class="st0" d="m32.8 19.7v13c-0.3 0.3-0.6 0.2-0.9 0.2h-20c-0.3 0-0.7 0-0.9-0.2v-13-6.5c-0.2-0.3-0.2-0.6-0.2-0.9v-5.4c0-1.9-0.9-3.3-2.7-4-0.3-0.2-0.7-0.2-0.7-0.6h21c2.4 0 4.3 2 4.3 4.3 0.1 4.3 0.1 8.7 0.1 13.1z"/>
<path class="st1" d="m42.6 11h-4c-1 0-1.4-0.4-1.4-1.4v-8.2c0-1 0.4-1.4 1.4-1.4h14.7c1 0 1.4 0.4 1.4 1.4v8.2c0 1-0.4 1.4-1.4 1.4h-4c-0.3 0.2-0.6 0.2-0.9 0.2h-4.9c-0.4 0-0.7 0-0.9-0.2z"/>
<path class="st2" d="m57.5 19.7h-5.1c-0.3-0.2-0.6-0.2-0.9-0.2h-11.3c-0.3 0-0.6 0-0.9 0.2h-6.5c-0.3 0.3-0.3 0.6-0.4 1.1v11.3c0.1 0.3 0 0.6 0.2 0.9 0.4 0.4 0.9 0.2 1.3 0.3 0.5 0.1 0.8 0.3 0.8 0.8s-0.2 0.8-0.7 0.9h-0.9-22.4-0.6c-0.6-0.1-1-0.4-1-0.9s0.3-0.8 1-0.9c0.3-0.1 0.7 0 1-0.3 0.1-0.2 0.1-0.5 0.1-0.8v-11.4c0-0.3 0.1-0.6-0.2-0.9h-5.3c-0.9 0-1.3 0.4-1.3 1.2v7.7 0.1 0.9 22.8h11.8c0.1 0.1 0.2 0.2 0.4 0.3h0.2 1.2 28 1.2 11c0.3 0 0.6 0 0.8-0.2v-0.9-30.5c-0.1-1.2-0.4-1.5-1.5-1.5z"/>
<path class="st2" d="m7.4 2.2c1.2 0.5 2.3 0.9 3 2.2 0.4 0.6 0.6 1.3 0.6 2v6.6h-8c-0.6 0-0.7-0.2-0.7-0.7v-5.7c0-2.6 1.9-4.4 4.5-4.4h0.6z"/>
<path class="st1" d="m52.4 19.7h-13.1v-3.1c0-0.9 0.4-1.3 1.3-1.3h2c0.3-0.2 0.6-0.2 0.9-0.2h4.9c0.3 0 0.6 0 0.9 0.2h2.1c0.8 0 1.2 0.4 1.2 1.2-0.2 1.1-0.3 2.1-0.2 3.2z"/>
<path class="st3" d="m45.8 16.2c2.6 0 4.6-1.4 4.6-3.1s-2.1-3.1-4.6-3.1-4.6 1.4-4.6 3.1 2.1 3.1 4.6 3.1z"/>
<path class="st1" d="m45.8 36h-8c-0.6 0-0.7-0.2-0.7-0.7v-9.5c0-0.6 0.1-0.7 0.7-0.7h16.1c0.6 0 0.7 0.2 0.7 0.7v9.6c0 0.5-0.1 0.7-0.7 0.7-2.6-0.2-5.4-0.1-8.1-0.1z"/>
<path class="st3" d="m11 32.7h21.8 1.2c0.7 0 1.1 0.5 1.1 1.2 0 0.6-0.4 1.1-1 1.2h-0.4-23.3-0.5c-0.6-0.1-0.9-0.5-1-1.2 0-0.6 0.4-1.2 1-1.2h1.1z"/>
<path class="st4" d="m19.8 45.8c0.4 0 0.8-0.1 1.1 0.6 0.2 0.5 0.8 0.6 1.3 0.5 0.4-0.1 0.7-0.4 0.7-0.8 0-0.5-0.3-0.8-0.7-1.1l-1.8-0.9c-1.1-0.6-1.8-1.5-1.9-2.8 0-1.3 0.5-2.4 1.8-2.9 0.4-0.2 0.5-0.5 0.4-0.9 0-0.4 0.1-0.6 0.5-0.6h0.6c1 0 1 0 1.1 0.9 0 0.4 0.3 0.4 0.5 0.6 1 0.4 1.4 1.3 1.7 2.2 0.1 0.4 0 0.7-0.5 0.7h-0.7c-0.5 0-0.9 0.1-1.1-0.6-0.2-0.5-0.8-0.6-1.3-0.5-0.4 0.1-0.7 0.4-0.8 0.8-0.1 0.5 0.3 0.8 0.7 1.1 0.6 0.3 1.3 0.6 1.9 1 1.1 0.6 1.8 1.5 1.8 2.8s-0.6 2.3-1.7 2.8c-0.4 0.2-0.5 0.5-0.5 0.9 0.1 0.4-0.1 0.6-0.6 0.6h-0.8c-0.7 0.1-1-0.1-0.9-0.8 0.1-0.3-0.2-0.5-0.4-0.6-0.9-0.4-1.4-1.1-1.7-2s-0.2-1 0.7-1h0.6z"/>
<path class="st1" d="m39.3 40.4h-1.7c-0.4 0-0.5-0.1-0.5-0.5-0.1-1.7-0.1-1.7 1.6-1.7h2.3c0.4 0 0.5 0.1 0.5 0.5 0.1 1.7 0.1 1.7-1.6 1.7h-0.6z"/>
<path class="st1" d="m45.7 40.4h-1.7c-0.5 0-0.6-0.3-0.5-0.7 0.2-0.5-0.5-1.4 0.4-1.5 1.2-0.1 2.3 0 3.5 0h0.1c0.7 0.4 0.2 1.1 0.3 1.7 0.1 0.3 0 0.6-0.4 0.5h-1.7z"/>
<path class="st1" d="m52.4 40.4h-1.6-0.3c-0.7-0.4-0.2-1.1-0.3-1.7-0.1-0.3 0-0.5 0.4-0.5 1.2 0 2.4-0.1 3.6 0 0.9 0.1 0.2 1 0.4 1.5 0.1 0.3 0.1 0.7-0.4 0.6-0.7 0.1-1.3 0.1-1.8 0.1z"/>
<path class="st1" d="m39.3 44.7h-1.7c-0.4 0-0.5-0.2-0.5-0.6 0-1.7-0.1-1.7 1.6-1.7h2.3c0.4 0 0.6 0.1 0.6 0.5 0.1 1.7 0.1 1.7-1.6 1.7-0.3 0.1-0.5 0.1-0.7 0.1z"/>
<path class="st1" d="m45.8 42.6h0.8c0.4 0 1.1-0.2 1.3 0.1 0.3 0.5 0.1 1.2 0.1 1.8 0 0.3-0.2 0.3-0.4 0.3-1.2 0-2.4 0.1-3.6 0-0.9-0.1-0.3-1-0.4-1.5-0.1-0.3-0.1-0.7 0.4-0.7h1.8z"/>
<path class="st1" d="m52.4 42.6h0.8c0.4 0 1.1-0.2 1.3 0.1 0.3 0.5 0.1 1.2 0.1 1.8 0 0.3-0.2 0.3-0.4 0.3-1.2 0-2.4 0.1-3.6 0-0.9-0.1-0.3-1-0.4-1.5-0.1-0.3-0.1-0.7 0.4-0.7h1.8z"/>
<path class="st1" d="m39.3 49.1h-1.7c-0.3 0-0.5-0.1-0.5-0.5-0.1-1.7-0.1-1.7 1.6-1.7h2.3c0.4 0 0.5 0.1 0.5 0.5 0.1 1.7 0.1 1.7-1.6 1.7h-0.6z"/>
<path class="st1" d="m45.8 49.1h-1.7c-0.3 0-0.5-0.1-0.5-0.5-0.1-1.7-0.1-1.7 1.6-1.7h2.3c0.4 0 0.5 0.1 0.5 0.5 0.1 1.7 0.1 1.7-1.6 1.7h-0.6z"/>
<path class="st1" d="m52.3 49.1h-0.6c-1.7 0-1.8-0.1-1.6-1.8 0-0.3 0.2-0.4 0.4-0.4 1.2 0 2.4-0.1 3.6 0 0.9 0.1 0.2 1 0.4 1.5 0.1 0.3 0.1 0.7-0.4 0.6-0.6 0.1-1.2 0.1-1.8 0.1z"/>
<path class="st5" d="m21.7 28.3h-5.9c-0.4 0-0.6-0.1-0.6-0.6 0-1.6 0-1.6 1.6-1.6h10.9c0.5 0 0.7 0.1 0.7 0.6 0 1.6 0 1.6-1.6 1.6h-5.1z"/>
<path class="st5" d="m24.5 10.9h-3.3c-0.3 0-0.5-0.1-0.5-0.5-0.1-1.8-0.1-1.8 1.7-1.8h5.3c0.5 0 0.6 0.1 0.6 0.6 0 1.6 0 1.6-1.6 1.6-0.6 0.1-1.4 0.1-2.2 0.1z"/>
<path class="st5" d="m24.6 15.3h-3.4c-0.3 0-0.5-0.1-0.5-0.5-0.1-1.8-0.1-1.8 1.7-1.8h5.3c0.5 0 0.6 0.1 0.6 0.6 0 1.6 0 1.6-1.6 1.6-0.6 0.1-1.4 0.1-2.1 0.1z"/>
<path class="st5" d="m24.6 19.7h-3.2c-0.5 0-0.6-0.1-0.6-0.6 0-1.6 0-1.6 1.6-1.6h5.4c0.5 0 0.6 0.1 0.6 0.6 0 1.6 0 1.6-1.6 1.6h-2.2z"/>
<path class="st5" d="m24.6 24h-3.4c-0.3 0-0.5-0.1-0.5-0.5-0.1-1.8-0.1-1.8 1.7-1.8h5.3c0.5 0 0.6 0.1 0.6 0.6 0 1.6 0 1.6-1.6 1.6-0.6 0.1-1.4 0.1-2.1 0.1z"/>
<path class="st5" d="m16.9 10.9c-1.6 0-1.6 0-1.6-1.6 0-0.4 0.1-0.6 0.6-0.6h2.2c0.4 0 0.6 0.1 0.6 0.5-0.1 1.7 0 1.7-1.8 1.7z"/>
<path class="st5" d="m16.9 24c-1.7 0-1.7 0-1.6-1.7 0-0.3 0.1-0.5 0.5-0.5 0.8 0 1.6-0.1 2.4 0 0.9 0.1 0.3 0.9 0.4 1.4 0.1 0.3 0.2 0.8-0.4 0.7-0.5 0.1-0.9 0.1-1.3 0.1z"/>
<path class="st5" d="m16.9 19.7c-1.7 0-1.7 0-1.6-1.7 0-0.4 0.1-0.5 0.5-0.5h2.3c0.4 0 0.5 0.1 0.5 0.5 0.1 1.7 0.1 1.7-1.7 1.7z"/>
<path class="st5" d="m16.9 15.3c-1.8 0-1.8 0-1.6-1.8 0-0.3 0.1-0.4 0.5-0.4h2.4c0.7 0 0.5 0.5 0.4 0.8-0.1 0.5 0.5 1.2-0.4 1.4h-1.3z"/>
<path class="st3" d="m39.3 30.5v-2.8c0-0.4 0.1-0.6 0.5-0.6 1.7-0.1 1.7-0.1 1.7 1.6v4.2c0 0.5-0.1 0.7-0.6 0.7-1.6 0-1.6 0-1.6-1.6v-1.5z"/>
<path class="st3" d="m62.3 65.3h-60.9c-0.7 0-1.3-0.6-1.3-1.3v-10.3c0-0.7 0.6-1.3 1.3-1.3h60.9c0.7 0 1.3 0.6 1.3 1.3v10.4c0 0.7-0.6 1.2-1.3 1.2z"/>
<path class="st1" d="m45.2 59.1h-27c-0.3 0-0.6-0.2-0.7-0.5l-1.8-6.2h32l-1.7 6.2c-0.1 0.3-0.4 0.5-0.8 0.5z"/>
<path class="st4" d="m32.8 62.2c0 0.6-0.5 1.1-1.1 1.1s-1.1-0.5-1.1-1.1 0.5-1.1 1.1-1.1 1 0.4 1.1 1.1z"/>
</svg>
