<svg width="40" height="40" viewBox="0 0 40 40" fill="none" xmlns="http://www.w3.org/2000/svg">
<path d="M39.0035 3.60337C39.0035 12.065 39.0035 20.6138 39.0035 29.0754C38.8289 29.7733 38.567 30.035 37.7813 30.035C37.3448 30.035 36.9956 30.035 36.559 30.035C31.7575 30.035 26.8686 30.035 22.067 30.035C21.8051 30.035 21.5432 30.035 21.3686 29.9478C21.2812 29.7733 21.2813 29.5989 21.2813 29.4244C21.2813 28.2904 21.2813 27.0691 21.2813 25.9351C21.2813 25.7606 21.2812 25.5862 21.3686 25.4117C21.5432 25.2372 21.7178 25.2372 21.9797 25.2372C22.6781 25.2372 23.4638 25.2372 24.1622 25.2372C24.9479 25.2372 25.2971 24.8883 25.2971 24.1032C25.2971 21.9224 25.2971 19.7415 25.2971 17.5607C25.2971 16.7756 24.9479 16.4266 24.1622 16.4266C23.4638 16.4266 22.6781 16.4266 21.9797 16.4266C21.8051 16.4266 21.5432 16.4267 21.3686 16.2522C21.2812 16.165 21.2813 16.0777 21.2813 15.9032C21.2813 15.3798 21.2813 14.7692 21.2813 14.2458C21.2813 14.1586 21.2812 14.0713 21.3686 13.9841C21.5432 13.8096 21.7178 13.8096 21.9797 13.8096C22.6781 13.8096 23.4638 13.8096 24.1622 13.8096C24.9479 13.8096 25.2971 13.4607 25.2971 12.6756C25.2971 11.2799 25.2971 9.79693 25.2971 8.4012C25.2971 7.6161 24.9479 7.26712 24.1622 7.26712C23.4638 7.26712 22.6781 7.26712 21.9797 7.26712C21.8051 7.26712 21.5432 7.26717 21.3686 7.0927C21.2812 6.91823 21.2813 6.74373 21.2813 6.56927C21.2813 5.43523 21.2813 4.3012 21.2813 3.07994C21.2813 2.90547 21.2812 2.73102 21.3686 2.55656C21.5432 2.38209 21.7178 2.38208 21.8924 2.38208C27.2178 2.38208 32.4559 2.38208 37.7813 2.38208H37.8686C38.567 2.64378 38.8289 2.9055 39.0035 3.60337Z" fill="#C3C7DC"/>
<path d="M4.1694 0.462891C5.56623 0.462891 7.05036 0.462891 8.44718 0.462891C9.2329 0.637357 9.4948 0.899078 9.4948 1.68418C9.4948 2.03311 9.4948 2.38205 9.4948 2.73099C9.4948 2.90545 9.4948 2.99269 9.4948 3.16715C9.4948 8.75008 9.4948 14.3329 9.4948 20.0031C9.4948 20.9627 9.4948 20.9628 8.53448 20.9628C7.31226 20.9628 6.09004 20.9628 4.95512 20.9628C2.85987 20.9628 1.20114 22.2712 0.590031 24.1904C0.502729 24.3648 0.502729 24.5393 0.415427 24.6265C0.328125 24.6265 0.328125 24.6265 0.328125 24.5393C0.328125 24.4521 0.328125 24.3648 0.328125 24.2776C0.328125 17.8223 0.328125 11.2798 0.328125 4.82455C0.328125 2.90542 1.28844 1.59691 2.94718 0.72458C3.29638 0.550113 3.82019 0.637357 4.1694 0.462891Z" fill="#123983"/>
<path d="M39.0031 36.1409C38.7412 36.6643 38.3047 36.8387 37.7809 37.0132C35.773 37.7111 33.6777 38.3217 31.6698 39.0196C31.4079 39.1068 31.0587 39.194 30.7968 39.1068C30.1857 39.0196 29.7492 38.6707 29.4 38.2345C28.7889 37.5366 28.4396 36.7516 28.5269 35.792C28.5269 35.7048 28.6142 35.7047 28.7016 35.6175C28.8762 35.5303 29.0508 35.5303 29.2254 35.5303C32.2809 35.5303 35.3365 35.5303 38.392 35.5303C38.6539 35.5303 38.8285 35.5302 39.0031 35.7047C39.0031 35.8792 39.0031 35.9664 39.0031 36.1409Z" fill="#EBB55D"/>
<path d="M39.0039 35.7047C35.5118 35.7047 32.0198 35.7047 28.615 35.7047C28.4404 35.5302 28.5277 35.3558 28.5277 35.1813C28.7023 34.0473 29.2261 33.175 30.1864 32.4771C30.361 32.3899 30.5356 32.3027 30.7102 32.3027C30.9721 32.2154 31.3213 32.2154 31.5832 32.3899C33.7658 33.0877 35.9483 33.8728 38.1309 34.5707C38.5674 34.7452 38.8293 35.0069 39.0912 35.3558C39.0039 35.5303 39.0039 35.6174 39.0039 35.7047Z" fill="#EEC27B"/>
<path d="M9.40783 2.72998C13.4237 2.72998 17.3523 2.72998 21.3682 2.72998C21.3682 4.21295 21.3682 5.7831 21.3682 7.26607C21.3682 7.26607 21.3682 7.2661 21.2809 7.35333C21.1063 7.44057 20.8443 7.44055 20.5824 7.44055C18.0507 7.44055 15.5189 7.44055 12.8999 7.44055C12.4634 7.44055 12.1142 7.52778 11.9396 7.87671C11.765 8.05118 11.765 8.31289 11.765 8.48736C11.765 9.88309 11.765 11.3661 11.765 12.7618C11.765 13.4597 12.2015 13.8958 12.8999 13.8958C15.4316 13.8958 18.0507 13.8958 20.5824 13.8958C20.8443 13.8958 21.019 13.8958 21.2809 13.983C21.2809 13.983 21.2809 13.9831 21.3682 14.0703C21.3682 14.8554 21.3682 15.5533 21.3682 16.3384C21.3682 16.3384 21.3682 16.3383 21.2809 16.4256C21.1063 16.5128 20.8443 16.5128 20.5824 16.5128C18.0507 16.5128 15.5189 16.5128 12.8999 16.5128C12.2888 16.5128 11.8523 16.8618 11.765 17.3852C11.765 17.4724 11.765 17.5596 11.765 17.6468C11.765 19.8277 11.765 22.0085 11.765 24.1021C11.765 24.8872 12.1142 25.2361 12.8999 25.2361C15.4316 25.2361 17.9634 25.2361 20.5824 25.2361C20.8443 25.2361 21.019 25.2362 21.2809 25.3234C21.2809 25.3234 21.2809 25.3234 21.3682 25.4106C21.3682 26.8936 21.3682 28.4638 21.3682 29.9467C15.7809 29.9467 10.2808 29.9467 4.69354 29.9467C2.51099 29.9467 0.764961 28.1149 0.415754 26.1958C0.328452 25.6724 0.415754 25.2361 0.415754 24.7999C0.590357 22.968 2.24909 21.3107 4.08243 21.049C4.69354 20.9617 5.21735 20.9618 5.82846 20.9618C6.87608 20.9618 7.9237 20.9618 9.05862 20.9618C9.40783 20.9618 9.49513 20.8745 9.40783 20.5256C9.40783 20.2639 9.40783 20.0022 9.40783 19.7405C9.40783 14.2448 9.40783 8.74906 9.40783 3.25336C9.40783 3.07889 9.40783 2.90445 9.40783 2.72998Z" fill="#E4F0F8"/>
<path d="M34.4619 16.3393C34.4619 18.869 34.4619 21.4861 34.4619 24.0158C34.4619 24.9754 34.0254 25.4115 33.065 25.4115C31.6682 25.4115 30.2714 25.4115 28.8746 25.4115C28.0889 25.4115 27.6523 24.9754 27.6523 24.1903C27.6523 19.0435 27.6523 13.8095 27.6523 8.66275C27.6523 7.87765 28.0889 7.35425 28.9619 7.35425C30.3587 7.35425 31.7555 7.35425 33.1523 7.35425C33.9381 7.35425 34.4619 7.79041 34.4619 8.66275C34.4619 11.1925 34.4619 13.7223 34.4619 16.3393Z" fill="#123983"/>
<path d="M21.366 16.3391C22.3263 16.3391 23.1993 16.3391 24.1597 16.3391C24.9454 16.3391 25.3819 16.7753 25.3819 17.5604C25.3819 19.7412 25.3819 21.922 25.3819 24.1901C25.3819 24.9752 24.9454 25.4114 24.1597 25.4114C23.1993 25.4114 22.3263 25.4114 21.366 25.4114C21.1914 25.2369 21.1914 25.0625 21.1914 24.888C21.1914 22.271 21.1914 19.5668 21.1914 16.9498C21.1914 16.6881 21.1914 16.5136 21.366 16.3391Z" fill="#123983"/>
<path d="M21.366 7.26636C22.3263 7.26636 23.1993 7.26636 24.1597 7.26636C24.9454 7.26636 25.3819 7.70255 25.3819 8.48764C25.3819 9.97061 25.3819 11.3663 25.3819 12.8493C25.3819 13.6344 24.9454 14.0706 24.1597 14.0706C23.1993 14.0706 22.3263 14.0706 21.366 14.0706C21.1914 13.8961 21.1914 13.7216 21.1914 13.5472C21.1914 11.628 21.1914 9.70892 21.1914 7.78979C21.1914 7.61532 21.1914 7.44082 21.366 7.26636Z" fill="#123983"/>
<path d="M30.7092 32.3897C29.3124 33.0876 28.6139 34.1343 28.6139 35.7045C28.6139 35.7917 28.6139 35.7918 28.6139 35.879C28.352 35.9663 28.0901 35.879 27.8282 35.879C20.8441 35.879 13.86 35.879 6.87583 35.879C6.70123 35.879 6.52662 35.879 6.35202 35.879C6.26472 35.879 6.26472 35.8791 6.26472 35.7918C6.17742 35.2684 6.26472 34.8322 6.43932 34.3088C6.70123 33.6109 7.05043 33.0003 7.57424 32.4769C7.66154 32.3897 7.74885 32.3025 7.92345 32.3025C8.09805 32.3025 8.18535 32.3025 8.35996 32.3025C15.6933 32.3025 23.1139 32.3025 30.4473 32.3025C30.36 32.3025 30.5346 32.3025 30.7092 32.3897Z" fill="#00BF71"/>
<path d="M6.17893 35.7924C6.26623 35.7052 6.44084 35.7051 6.61544 35.7051C13.7742 35.7051 20.9329 35.7051 28.179 35.7051C28.3536 35.7051 28.5282 35.7051 28.6155 35.8796C28.7028 37.3626 29.4885 38.4966 30.798 39.1072C30.7107 39.1072 30.5361 39.1072 30.4488 39.1072C22.9409 39.1072 15.5202 39.1072 8.01227 39.1072C7.92497 39.1072 7.83766 39.1072 7.75036 39.1072C7.48846 39.02 7.40115 38.8455 7.22655 38.671C6.70274 38.0604 6.26623 37.3625 6.17893 36.4902C6.09163 36.3157 6.00433 36.0541 6.17893 35.7924Z" fill="#123983"/>
<path d="M6.17573 35.792C6.17573 37.1005 6.87415 38.1473 7.74716 39.1068C6.35034 39.1068 4.95351 39.1068 3.55668 39.1068C1.81065 39.0196 0.326521 37.4494 0.413822 35.7047C0.588426 35.5302 0.763029 35.5303 0.937633 35.5303C2.50906 35.5303 4.1678 35.5303 5.73923 35.5303C5.82653 35.6175 6.00113 35.6175 6.17573 35.792Z" fill="#C3C7DC"/>
<path d="M6.17734 35.7045C4.2567 35.7045 2.33606 35.7045 0.328125 35.7045C0.328125 33.7854 1.72495 32.3897 3.64559 32.3025C4.95512 32.3025 6.35194 32.3025 7.66147 32.3025C7.31226 32.7387 6.96305 33.0876 6.70115 33.611C6.43924 34.3089 6.26464 35.0066 6.17734 35.7045Z" fill="#C3C7DC"/>
<path d="M21.3663 16.3391C21.3663 19.305 21.3663 22.3583 21.3663 25.3242C19.0091 25.3242 16.652 25.3242 14.2075 25.3242C13.771 25.3242 13.2472 25.3242 12.8107 25.3242C12.1123 25.3242 11.6758 24.888 11.6758 24.1901C11.6758 21.922 11.6758 19.654 11.6758 17.4731C11.6758 16.8625 12.1123 16.3391 12.7234 16.3391C15.6044 16.3391 18.4853 16.3391 21.3663 16.3391Z" fill="#00BF71"/>
<path d="M21.3663 7.26636C21.3663 9.53442 21.3663 11.8025 21.3663 14.0706C19.0091 14.0706 16.652 14.0706 14.2075 14.0706C13.771 14.0706 13.2472 14.0706 12.8107 14.0706C12.1123 14.0706 11.6758 13.6344 11.6758 12.9365C11.6758 11.4536 11.6758 9.97061 11.6758 8.48764C11.6758 7.87701 12.1123 7.35362 12.7234 7.35362C15.6044 7.26639 18.4853 7.26636 21.3663 7.26636Z" fill="#00BF71"/>
</svg>
