<svg width="69" height="70" viewBox="0 0 69 70" fill="none" xmlns="http://www.w3.org/2000/svg">
<path d="M68.2635 41.0183C67.9707 40.7255 67.9707 40.4327 68.1171 40.1399H68.2635C68.2635 40.4327 68.2635 40.7255 68.2635 41.0183Z" fill="#F4D7CB"/>
<path d="M34.3004 63.7098C31.8117 63.7098 29.323 63.7098 26.9807 63.7098C24.6383 63.7098 22.7352 64.4418 20.9785 66.1985C20.1001 67.0769 19.2217 68.1016 18.197 68.8336C17.6114 69.2728 17.1722 69.4191 16.4402 69.4191C11.902 69.4191 7.36377 69.4191 2.82553 69.4191C1.36159 69.4191 0.19043 68.3944 0.19043 66.9305C0.19043 65.3201 0.19043 63.7097 0.19043 61.953C0.19043 61.221 0.483218 60.6354 1.0688 60.1963C5.75343 55.5116 10.2917 50.9734 14.9763 46.4352C16.2938 45.264 17.7578 44.3856 19.6609 44.0928C19.6609 44.3856 19.3681 44.532 19.2217 44.532C17.7578 45.4104 17.0258 47.1671 17.3186 48.7775C17.6114 50.5342 18.7826 51.7054 20.5393 52.1445C20.9785 52.2909 21.4177 52.291 21.8568 52.291C25.2239 52.291 28.7374 52.291 32.1045 52.291C32.5437 52.291 32.8365 52.2909 33.2756 52.1445C33.5684 52.1445 34.0076 51.9982 34.3004 52.291L34.4468 52.4374C34.7396 52.7301 34.5932 53.0229 34.5932 53.3157C34.5932 56.5364 34.5932 59.7571 34.5932 62.8313C34.4468 63.1241 34.4468 63.417 34.3004 63.7098Z" fill="#C3C7DC"/>
<path d="M34.3001 63.7101C34.3001 59.9039 34.3001 56.0976 34.3001 52.4377C37.6672 52.4377 41.0343 52.4377 44.5477 52.4377C46.0117 52.4377 47.3292 52.2913 48.6468 51.7057C50.1107 50.9738 51.2819 49.949 52.3067 48.6315C54.0634 46.2892 55.6737 43.8005 57.4305 41.3118C59.7728 37.9447 64.6038 37.2127 67.9709 39.8478C68.1173 39.9942 68.4101 40.1405 68.4101 40.4333C68.4101 40.7261 68.4101 41.019 68.4101 41.3118C67.6781 42.7757 66.6533 43.9468 65.775 45.2643C63.8718 48.1922 61.8223 51.1201 59.7728 54.048C58.6016 55.8048 57.4305 57.5615 56.1129 59.1718C54.0634 61.8069 51.4283 63.2709 48.2076 63.8565C47.0365 64.0029 45.7189 64.0029 44.5477 64.0029C41.0343 63.7101 37.6672 63.7101 34.3001 63.7101Z" fill="#C3C7DC"/>
<path d="M34.1534 52.2907C29.9079 52.5835 25.6625 52.4371 21.417 52.4371C18.7819 52.4371 16.7324 50.5339 16.8788 47.7524C16.8788 46.2885 17.6108 45.1173 18.9283 44.3854C19.0747 44.239 19.3675 44.0926 19.5139 44.0926C19.9531 43.9462 20.2459 43.7998 20.6851 43.7998C25.2233 43.7998 29.7615 43.7998 34.2998 43.7998C34.5926 44.0925 34.4462 44.3854 34.4462 44.6782C34.4462 46.8741 34.4462 49.2164 34.4462 51.4123C34.4462 51.7051 34.4462 51.9979 34.1534 52.2907Z" fill="#123983"/>
<path d="M34.3001 52.1448C34.3001 49.3633 34.3001 46.4354 34.3001 43.6539C36.3496 43.6539 38.3992 43.6539 40.3023 43.6539C41.1807 43.6539 41.6198 44.2395 41.6198 45.1179C41.3271 48.6314 39.2775 50.9736 36.0569 51.852C35.3249 52.1448 34.8857 52.2912 34.3001 52.1448Z" fill="#123983"/>
<path d="M25.8102 0.174516C26.835 0.0281214 27.8597 0.0281214 28.8845 0.174516C31.3732 0.6137 33.4227 1.49207 35.3259 3.10241C35.4722 3.24881 35.6186 3.24881 35.9114 3.10241C37.8146 1.49207 40.0105 0.467306 42.3528 0.174516C46.0127 -0.411063 49.3798 0.467341 52.3076 2.95605C55.0891 5.15197 56.6995 8.07981 57.1387 11.5933C57.7243 15.6923 56.6995 19.4986 53.7716 22.5729C49.8189 26.8183 45.8663 30.9174 41.7672 35.0164L41.6208 35.1629C40.7425 35.0165 40.0105 34.7237 39.2785 34.5773C37.0826 33.8453 34.8867 33.1133 32.8371 31.9422C29.6165 30.3318 26.6886 28.1359 24.3463 25.5008C21.7111 22.5729 20.1008 19.3523 19.5152 15.3996C19.2224 12.6181 19.6616 9.83655 20.6864 7.20145C21.7111 4.71273 23.1751 2.66326 25.0782 0.760131C25.5174 0.467341 25.6638 0.320911 25.8102 0.174516Z" fill="#00BF71"/>
<path d="M25.809 0.174408C26.1018 0.320803 25.809 0.467215 25.809 0.467215C25.0771 1.19919 24.3451 2.07757 23.6131 2.95594C22.0028 5.00547 20.8316 7.20135 20.246 9.69006C19.9533 11.154 19.6605 12.7644 19.8069 14.2284C19.9533 16.8635 20.6852 19.3521 22.0028 21.6944C23.1739 23.8904 24.7843 25.6471 26.6874 27.4039C28.4441 29.0142 30.3473 30.3317 32.3968 31.3565C34.5927 32.5276 36.935 33.5524 39.4237 34.2844C40.1557 34.4308 40.7413 34.7236 41.4733 34.87C41.6197 34.87 41.7661 34.8699 41.9125 35.0163C41.0341 35.8947 40.1557 36.9195 39.131 37.7979C37.0814 39.701 34.0071 39.5546 31.9576 37.5051C29.7617 35.3091 27.7122 33.1132 25.6626 30.9173C23.0275 28.2822 20.3924 25.5007 17.9037 22.8656C12.6335 17.3026 12.7799 8.66532 18.3429 3.39511C20.3924 1.49198 22.8811 0.320803 25.809 0.174408Z" fill="#123983"/>
<path d="M31.3728 15.2528C31.6656 15.2528 32.1048 15.2528 32.3976 15.2528C32.6904 15.2528 32.8368 15.1064 32.8368 14.8136C32.8368 13.3497 32.8368 12.0322 32.8368 10.5682C32.8368 10.2754 32.8368 10.129 33.2759 10.129C34.8863 10.129 36.643 10.129 38.2534 10.129C38.5462 10.129 38.6925 10.129 38.6925 10.5682C38.6925 12.0322 38.6925 13.4961 38.6925 14.8136C38.6925 15.1064 38.8389 15.2528 39.1317 15.2528C40.5957 15.2528 41.9132 15.2528 43.3772 15.2528C43.8164 15.2528 43.8164 15.3992 43.8164 15.692C43.8164 17.3024 43.8164 18.9127 43.8164 20.523C43.8164 20.8158 43.8164 20.9622 43.3772 20.9622C41.9132 20.9622 40.5957 20.9622 39.1317 20.9622C38.8389 20.9622 38.6925 20.9622 38.6925 21.4014C38.6925 22.4261 38.6925 23.5973 38.6925 24.6221C38.5462 24.7685 38.3998 24.6221 38.2534 24.6221C34.7399 22.7189 32.3976 19.9374 31.5192 15.9848C31.3728 15.692 31.2264 15.5456 31.3728 15.2528Z" fill="#E6EAFD"/>
<path d="M31.3728 15.2533C31.5192 16.1317 31.6656 17.0101 31.9584 17.7421C32.6903 19.7916 34.0079 21.4019 35.6182 22.8659C36.4966 23.5978 37.375 24.1834 38.3997 24.6226C38.3997 25.0618 38.5461 25.6474 38.3997 25.9402C38.107 26.233 37.5214 26.0866 37.0822 26.0866C35.7646 26.0866 34.4471 26.0866 33.1295 26.0866C32.6903 26.0866 32.5439 26.0866 32.6903 25.6474C32.6903 24.1835 32.6903 22.8659 32.6903 21.4019C32.6903 21.1091 32.544 20.9628 32.2512 20.9628C30.7872 20.9628 29.4697 20.9628 28.0057 20.9628C27.7129 20.9628 27.5665 20.9628 27.5665 20.5236C27.5665 18.9132 27.5665 17.1565 27.5665 15.5461C27.5665 15.2533 27.7129 15.107 28.0057 15.107C29.1769 15.2534 30.348 15.2533 31.3728 15.2533Z" fill="#C3C7DC"/>
</svg>
